<svg width="1129" height="1281" viewBox="0 0 1129 1281" fill="none" xmlns="http://www.w3.org/2000/svg">
<path d="M66.25 156.125H216.25C257.5 156.125 298.958 156.542 340.625 157.375C382.708 158.208 422.917 159.875 461.25 162.375C500 164.458 535.625 167.375 568.125 171.125C600.625 174.875 627.917 179.667 650 185.5C682.5 195.083 712.708 210.083 740.625 230.5C768.958 250.917 795.208 274.875 819.375 302.375C828.958 313.625 839.583 328.833 851.25 348C863.333 366.75 874.583 388.417 885 413C895.833 437.583 904.792 464.25 911.875 493C918.958 521.75 922.5 551.542 922.5 582.375C922.5 655.292 908.75 721.125 881.25 779.875C854.167 838.208 814.792 891.958 763.125 941.125C760.625 942.375 756.875 944.875 751.875 948.625C747.292 952.375 742.292 956.542 736.875 961.125C731.458 965.292 726.25 969.25 721.25 973C716.667 976.75 713.333 979.458 711.25 981.125C701.667 989.042 689.792 996.542 675.625 1003.62C661.875 1010.71 646.667 1017.17 630 1023C613.333 1028.83 595.833 1034.25 577.5 1039.25C559.583 1044.25 541.875 1048.42 524.375 1051.75C506.875 1055.08 490.417 1057.58 475 1059.25C459.583 1061.33 446.25 1062.38 435 1062.38C418.75 1062.38 402.083 1061.54 385 1059.88C367.917 1058.62 348.125 1058 325.625 1058H46.25C32.9167 1058 26.25 1053.62 26.25 1044.88C26.25 1039.88 30.625 1035.92 39.375 1033C48.125 1029.67 58.75 1027.17 71.25 1025.5C83.75 1023.42 97.0833 1021.75 111.25 1020.5C125.417 1018.83 138.125 1016.96 149.375 1014.88C157.708 1013.21 163.958 1010.92 168.125 1008C172.708 1004.67 175.833 1001.12 177.5 997.375C179.583 988.625 180.833 981.75 181.25 976.75C181.667 971.333 181.875 965.292 181.875 958.625V198.625C180.625 195.708 175.208 193 165.625 190.5C156.458 188 145.208 185.708 131.875 183.625C118.958 181.542 105 179.458 90 177.375C75 175.292 61.25 173.208 48.75 171.125C42.0833 170.292 38.75 168.208 38.75 164.875C38.75 164.042 41.0417 161.958 45.625 158.625C47.2917 157.792 49.5833 157.167 52.5 156.75C55.8333 156.333 60.4167 156.125 66.25 156.125ZM325.625 201.75V553C325.625 578.417 324.792 603 323.125 626.75C321.875 650.083 320.417 673 318.75 695.5C317.5 718 316.042 740.5 314.375 763C313.125 785.083 312.5 807.792 312.5 831.125C312.5 883.625 315.417 924.042 321.25 952.375C327.5 980.292 336.042 1000.29 346.875 1012.38C351.875 1019.04 358.958 1023.42 368.125 1025.5C377.708 1027.17 386.25 1028 393.75 1028C426.25 1028 457.083 1023.83 486.25 1015.5C515.417 1007.17 542.292 995.708 566.875 981.125C591.875 966.542 614.167 949.458 633.75 929.875C653.75 910.292 670.625 889.25 684.375 866.75C713.125 820.5 734.583 774.042 748.75 727.375C762.917 680.292 770 635.5 770 593C770 569.667 768.125 547.375 764.375 526.125C761.042 504.875 756.875 485.292 751.875 467.375C746.875 449.458 741.458 433.625 735.625 419.875C729.792 406.125 724.583 395.292 720 387.375C713.75 376.125 705 362.583 693.75 346.75C682.5 330.5 667.917 313.833 650 296.75C632.5 279.25 611.042 262.375 585.625 246.125C560.208 229.458 530 215.083 495 203C473.333 195.083 451.667 189.667 430 186.75C408.333 183.833 384.583 182.375 358.75 182.375C356.25 182.375 352.917 182.583 348.75 183C345 183.417 341.458 184.25 338.125 185.5C334.792 186.75 331.875 188.833 329.375 191.75C326.875 194.25 325.625 197.583 325.625 201.75Z" fill="black"/>
<path d="M340.625 157.375L340.025 187.369L340.031 187.369L340.625 157.375ZM461.25 162.375L459.298 192.311L459.468 192.323L459.639 192.332L461.25 162.375ZM650 185.5L658.485 156.725L658.075 156.604L657.662 156.495L650 185.5ZM740.625 230.5L722.915 254.715L723.001 254.777L723.086 254.839L740.625 230.5ZM819.375 302.375L842.212 282.921L842.062 282.745L841.91 282.572L819.375 302.375ZM851.25 348L825.624 363.598L825.824 363.927L826.033 364.251L851.25 348ZM885 413L857.377 424.704L857.461 424.902L857.547 425.098L885 413ZM881.25 779.875L854.079 767.157L854.059 767.199L854.04 767.242L881.25 779.875ZM763.125 941.125L776.541 967.958L780.555 965.951L783.806 962.857L763.125 941.125ZM751.875 948.625L733.875 924.625L733.368 925.005L732.878 925.406L751.875 948.625ZM736.875 961.125L755.166 984.904L755.72 984.478L756.253 984.027L736.875 961.125ZM721.25 973L703.25 949L702.743 949.38L702.253 949.781L721.25 973ZM711.25 981.125L692.509 957.699L692.325 957.846L692.144 957.996L711.25 981.125ZM675.625 1003.62L662.209 976.792L662.047 976.873L661.886 976.956L675.625 1003.62ZM630 1023L620.089 994.684L630 1023ZM577.5 1039.25L569.607 1010.31L569.521 1010.33L569.436 1010.35L577.5 1039.25ZM475 1059.25L471.776 1029.42L471.378 1029.47L470.982 1029.52L475 1059.25ZM385 1059.88L387.913 1030.02L387.552 1029.98L387.189 1029.95L385 1059.88ZM39.375 1033L48.8618 1061.46L49.4628 1061.26L50.0549 1061.03L39.375 1033ZM71.25 1025.5L75.2149 1055.24L75.6996 1055.17L76.182 1055.09L71.25 1025.5ZM111.25 1020.5L113.887 1050.38L114.322 1050.35L114.755 1050.29L111.25 1020.5ZM149.375 1014.88L154.838 1044.37L155.048 1044.33L155.258 1044.29L149.375 1014.88ZM168.125 1008L185.329 1032.58L185.551 1032.42L185.77 1032.26L168.125 1008ZM177.5 997.375L204.914 1009.56L206.041 1007.02L206.684 1004.32L177.5 997.375ZM181.25 976.75L211.146 979.241L211.154 979.146L211.162 979.051L181.25 976.75ZM181.875 198.625H211.875V192.467L209.449 186.807L181.875 198.625ZM165.625 190.5L157.731 219.443L157.892 219.487L158.052 219.529L165.625 190.5ZM131.875 183.625L127.098 213.242L127.171 213.254L127.244 213.265L131.875 183.625ZM48.75 171.125L53.682 141.533L53.0783 141.433L52.471 141.357L48.75 171.125ZM45.625 158.625L32.2086 131.792L29.9878 132.903L27.9798 134.363L45.625 158.625ZM52.5 156.75L48.779 126.982L48.5179 127.014L48.2574 127.052L52.5 156.75ZM323.125 626.75L293.199 624.65L293.181 624.897L293.168 625.145L323.125 626.75ZM318.75 695.5L288.832 693.284L288.812 693.56L288.796 693.836L318.75 695.5ZM314.375 763L284.457 760.784L284.438 761.044L284.423 761.305L314.375 763ZM321.25 952.375L291.866 958.425L291.918 958.677L291.975 958.929L321.25 952.375ZM346.875 1012.38L370.875 994.375L370.088 993.325L369.212 992.349L346.875 1012.38ZM368.125 1025.5L361.476 1054.75L362.227 1054.92L362.985 1055.06L368.125 1025.5ZM486.25 1015.5L478.008 986.654L486.25 1015.5ZM566.875 981.125L551.759 955.212L551.664 955.267L551.569 955.323L566.875 981.125ZM633.75 929.875L612.761 908.44L612.648 908.55L612.537 908.662L633.75 929.875ZM684.375 866.75L658.896 850.912L658.836 851.009L658.777 851.107L684.375 866.75ZM748.75 727.375L777.456 736.089L777.467 736.054L777.478 736.019L748.75 727.375ZM764.375 526.125L734.737 530.774L734.782 531.057L734.831 531.339L764.375 526.125ZM720 387.375L693.775 401.944L693.904 402.176L694.037 402.406L720 387.375ZM693.75 346.75L669.084 363.826L669.188 363.977L669.295 364.126L693.75 346.75ZM650 296.75L628.787 317.963L629.039 318.216L629.298 318.462L650 296.75ZM585.625 246.125L569.174 271.212L569.319 271.307L569.465 271.401L585.625 246.125ZM495 203L484.704 231.178L484.956 231.27L485.21 231.358L495 203ZM348.75 183L345.765 153.149L345.601 153.165L345.437 153.183L348.75 183ZM329.375 191.75L350.588 212.963L351.403 212.149L352.153 211.274L329.375 191.75ZM66.25 186.125H216.25V126.125H66.25V186.125ZM216.25 186.125C257.298 186.125 298.556 186.54 340.025 187.369L341.225 127.381C299.36 126.544 257.702 126.125 216.25 126.125V186.125ZM340.031 187.369C381.704 188.194 421.457 189.844 459.298 192.311L463.202 132.439C424.376 129.906 383.713 128.222 341.219 127.381L340.031 187.369ZM459.639 192.332C497.887 194.388 532.893 197.259 564.686 200.927L571.564 141.323C538.357 137.491 502.113 134.529 462.861 132.418L459.639 192.332ZM564.686 200.927C596.315 204.577 622.093 209.157 642.338 214.505L657.662 156.495C633.741 150.176 604.935 145.173 571.564 141.323L564.686 200.927ZM641.515 214.275C670.631 222.861 697.729 236.295 722.915 254.715L758.335 206.285C727.687 183.871 694.369 167.306 658.485 156.725L641.515 214.275ZM723.086 254.839C749.503 273.875 774.091 296.292 796.84 322.178L841.91 282.572C816.325 253.458 788.414 227.959 758.164 206.161L723.086 254.839ZM796.538 321.829C804.709 331.421 814.407 345.17 825.624 363.598L876.876 332.402C864.76 312.497 853.208 295.829 842.212 282.921L796.538 321.829ZM826.033 364.251C837.026 381.309 847.505 401.405 857.377 424.704L912.623 401.296C901.662 375.428 889.641 352.191 876.467 331.749L826.033 364.251ZM857.547 425.098C867.614 447.941 876.036 472.944 882.746 500.177L941.004 485.823C933.547 455.556 924.053 427.226 912.453 400.902L857.547 425.098ZM882.746 500.177C889.227 526.483 892.5 553.86 892.5 582.375H952.5C952.5 549.223 948.689 517.017 941.004 485.823L882.746 500.177ZM892.5 582.375C892.5 651.444 879.497 712.856 854.079 767.157L908.421 792.593C938.003 729.394 952.5 659.139 952.5 582.375H892.5ZM854.04 767.242C828.706 821.806 791.679 872.54 742.444 919.393L783.806 962.857C837.904 911.377 879.627 854.611 908.46 792.508L854.04 767.242ZM749.709 914.292C744.598 916.847 738.998 920.783 733.875 924.625L769.875 972.625C772.087 970.966 773.803 969.749 775.078 968.899C776.462 967.977 776.866 967.796 776.541 967.958L749.709 914.292ZM732.878 925.406C728.145 929.279 723.016 933.553 717.497 938.223L756.253 984.027C761.568 979.53 766.439 975.471 770.872 971.844L732.878 925.406ZM718.584 937.346C713.255 941.445 708.144 945.33 703.25 949L739.25 997C744.356 993.17 749.662 989.138 755.166 984.904L718.584 937.346ZM702.253 949.781C697.678 953.524 694.454 956.143 692.509 957.699L729.991 1004.55C732.213 1002.77 735.655 999.976 740.247 996.219L702.253 949.781ZM692.144 957.996C684.711 964.136 674.869 970.462 662.209 976.792L689.041 1030.46C704.715 1022.62 718.622 1013.95 730.356 1004.25L692.144 957.996ZM661.886 976.956C649.531 983.32 635.623 989.247 620.089 994.684L639.911 1051.32C657.71 1045.09 674.219 1038.1 689.364 1030.29L661.886 976.956ZM620.089 994.684C604.135 1000.27 587.311 1005.48 569.607 1010.31L585.393 1068.19C604.356 1063.02 622.531 1057.4 639.911 1051.32L620.089 994.684ZM569.436 1010.35C552.292 1015.14 535.402 1019.11 518.762 1022.28L529.988 1081.22C548.348 1077.72 566.874 1073.36 585.564 1068.15L569.436 1010.35ZM518.762 1022.28C501.939 1025.48 486.284 1027.86 471.776 1029.42L478.224 1089.08C494.549 1087.31 511.811 1084.68 529.988 1081.22L518.762 1022.28ZM470.982 1029.52C456.434 1031.49 444.508 1032.38 435 1032.38V1092.38C447.992 1092.38 462.733 1091.18 479.018 1088.98L470.982 1029.52ZM435 1032.38C419.775 1032.38 404.082 1031.59 387.913 1030.02L382.087 1089.73C400.085 1091.49 417.725 1092.38 435 1092.38V1032.38ZM387.189 1029.95C369.193 1028.64 348.644 1028 325.625 1028V1088C347.606 1088 366.64 1088.61 382.811 1089.8L387.189 1029.95ZM325.625 1028H46.25V1088H325.625V1028ZM46.25 1028C44.4634 1028 43.7835 1027.84 43.9109 1027.87C44.0219 1027.9 45.581 1028.24 47.7097 1029.64C50.04 1031.17 52.5166 1033.62 54.2474 1037.03C55.9202 1040.32 56.25 1043.23 56.25 1044.88H-3.75C-3.75 1058.19 2.07692 1071.46 14.7903 1079.8C25.3009 1086.7 37.2566 1088 46.25 1088V1028ZM56.25 1044.88C56.25 1048.17 55.4891 1051.49 54.0273 1054.49C52.6193 1057.37 50.8888 1059.29 49.6586 1060.4C47.5247 1062.33 46.4432 1062.27 48.8618 1061.46L29.8882 1004.54C23.5568 1006.65 15.9128 1010.02 9.40385 1015.91C2.16748 1022.46 -3.75 1032.36 -3.75 1044.88H56.25ZM50.0549 1061.03C56.0413 1058.75 64.2753 1056.7 75.2149 1055.24L67.2851 995.763C53.2247 997.638 40.2087 1000.58 28.6951 1004.97L50.0549 1061.03ZM76.182 1055.09C87.8357 1053.15 100.397 1051.57 113.887 1050.38L108.613 990.616C93.7692 991.926 79.6643 993.684 66.318 995.908L76.182 1055.09ZM114.755 1050.29C129.425 1048.57 142.804 1046.6 154.838 1044.37L143.912 985.377C133.446 987.315 121.408 989.098 107.745 990.706L114.755 1050.29ZM155.258 1044.29C165.287 1042.29 176.224 1038.95 185.329 1032.58L150.921 983.423C151.503 983.016 151.377 983.23 149.985 983.74C148.639 984.234 146.538 984.848 143.492 985.458L155.258 1044.29ZM185.77 1032.26C193.064 1026.96 200.445 1019.62 204.914 1009.56L150.086 985.191C150.663 983.891 151.252 983.175 151.411 982.995C151.553 982.834 151.338 983.114 150.48 983.738L185.77 1032.26ZM206.684 1004.32C208.889 995.062 210.543 986.477 211.146 979.241L151.354 974.259C151.123 977.023 150.277 982.188 148.316 990.426L206.684 1004.32ZM211.162 979.051C211.649 972.72 211.875 965.895 211.875 958.625H151.875C151.875 964.689 151.685 969.946 151.338 974.449L211.162 979.051ZM211.875 958.625V198.625H151.875V958.625H211.875ZM209.449 186.807C204.419 175.069 194.341 169.598 190.291 167.573C184.919 164.887 178.909 162.961 173.198 161.471L158.052 219.529C159.861 220 161.218 220.416 162.191 220.754C163.195 221.103 163.554 221.287 163.459 221.239C163.444 221.232 162.34 220.696 160.81 219.405C159.338 218.163 156.385 215.306 154.301 210.443L209.449 186.807ZM173.519 161.557C162.937 158.671 150.523 156.175 136.506 153.985L127.244 213.265C139.894 215.242 149.98 217.329 157.731 219.443L173.519 161.557ZM136.652 154.008C123.489 151.885 109.311 149.769 94.1271 147.66L85.8729 207.09C100.689 209.148 114.428 211.199 127.098 213.242L136.652 154.008ZM94.1271 147.66C79.346 145.607 65.8688 143.564 53.682 141.533L43.818 200.717C56.6312 202.852 70.654 204.976 85.8729 207.09L94.1271 147.66ZM52.471 141.357C50.8139 141.15 53.3791 141.141 57.15 143.498C59.3318 144.861 62.4124 147.335 64.9248 151.418C67.5612 155.702 68.75 160.437 68.75 164.875H8.75C8.75 178.882 16.7507 189.003 25.35 194.377C32.4543 198.818 40.0194 200.267 45.029 200.893L52.471 141.357ZM68.75 164.875C68.75 171.263 66.6867 175.927 65.6902 177.92C64.553 180.195 63.3738 181.781 62.7692 182.55C62.0961 183.407 61.5358 184.004 61.2442 184.304C60.9307 184.627 60.7144 184.826 60.6489 184.886C60.5832 184.945 61.2661 184.345 63.2701 182.887L27.9798 134.363C25.4006 136.239 22.646 138.346 20.2886 140.489C19.181 141.496 17.3644 143.223 15.5901 145.481C14.6991 146.615 13.3051 148.527 12.0246 151.087C10.8849 153.367 8.75 158.279 8.75 164.875H68.75ZM59.0414 185.458C57.7038 186.127 56.7556 186.401 56.4873 186.474C56.1886 186.556 56.2366 186.521 56.7426 186.448L48.2574 127.052C43.7782 127.691 37.9338 128.93 32.2086 131.792L59.0414 185.458ZM56.221 186.518C57.7434 186.328 60.8988 186.125 66.25 186.125V126.125C59.9345 126.125 53.9232 126.339 48.779 126.982L56.221 186.518ZM295.625 201.75V553H355.625V201.75H295.625ZM295.625 553C295.625 577.763 294.813 601.644 293.199 624.65L353.051 628.85C354.77 604.356 355.625 579.071 355.625 553H295.625ZM293.168 625.145C291.928 648.282 290.483 670.995 288.832 693.284L348.668 697.716C350.35 675.005 351.822 651.885 353.082 628.355L293.168 625.145ZM288.796 693.836C287.556 716.152 286.11 738.468 284.457 760.784L344.293 765.216C345.973 742.532 347.444 719.848 348.704 697.164L288.796 693.836ZM284.423 761.305C283.139 783.982 282.5 807.257 282.5 831.125H342.5C342.5 808.326 343.111 786.184 344.327 764.695L284.423 761.305ZM282.5 831.125C282.5 884.3 285.419 927.108 291.866 958.425L350.634 946.325C345.415 920.975 342.5 882.95 342.5 831.125H282.5ZM291.975 958.929C298.608 988.557 308.567 1014.59 324.538 1032.4L369.212 992.349C363.516 985.996 356.392 972.027 350.525 945.821L291.975 958.929ZM322.875 1030.38C332.69 1043.46 346.32 1051.31 361.476 1054.75L374.774 996.246C371.596 995.524 371.06 994.622 370.875 994.375L322.875 1030.38ZM362.985 1055.06C373.796 1056.94 384.108 1058 393.75 1058V998C388.392 998 381.621 997.397 373.265 995.944L362.985 1055.06ZM393.75 1058C428.839 1058 462.46 1053.5 494.492 1044.35L478.008 986.654C451.706 994.169 423.661 998 393.75 998V1058ZM494.492 1044.35C525.983 1035.35 555.252 1022.9 582.181 1006.93L551.569 955.323C529.331 968.515 504.85 978.985 478.008 986.654L494.492 1044.35ZM581.991 1007.04C609.117 991.215 633.477 972.574 654.963 951.088L612.537 908.662C594.856 926.343 574.633 941.868 551.759 955.212L581.991 1007.04ZM654.739 951.31C676.4 930.1 694.855 907.133 709.973 882.393L658.777 851.107C646.395 871.367 631.1 890.483 612.761 908.44L654.739 951.31ZM709.854 882.588C739.827 834.37 762.447 785.533 777.456 736.089L720.044 718.661C706.72 762.55 686.423 806.63 658.896 850.912L709.854 882.588ZM777.478 736.019C792.359 686.561 800 638.845 800 593H740C740 632.155 733.475 674.022 720.022 718.731L777.478 736.019ZM800 593C800 568.059 797.996 544.015 793.919 520.911L734.831 531.339C738.254 550.735 740 571.274 740 593H800ZM794.013 521.476C790.526 499.248 786.128 478.508 780.771 459.311L722.979 475.439C727.622 492.075 731.558 510.502 734.737 530.774L794.013 521.476ZM780.771 459.311C775.504 440.438 769.685 423.344 763.242 408.159L708.008 431.591C713.232 443.906 718.246 458.478 722.979 475.439L780.771 459.311ZM763.242 408.159C757.187 393.885 751.428 381.784 745.963 372.344L694.037 402.406C697.739 408.799 702.396 418.365 708.008 431.591L763.242 408.159ZM746.225 372.806C739.241 360.234 729.809 345.705 718.205 329.374L669.295 364.126C680.191 379.462 688.259 392.016 693.775 401.944L746.225 372.806ZM718.416 329.674C705.758 311.39 689.742 293.192 670.702 275.038L629.298 318.462C646.091 334.475 659.242 349.61 669.084 363.826L718.416 329.674ZM671.213 275.537C651.89 256.214 628.646 238.023 601.785 220.849L569.465 271.401C593.437 286.727 613.11 302.286 628.787 317.963L671.213 275.537ZM602.076 221.038C574.19 202.752 541.647 187.367 504.79 174.642L485.21 231.358C518.353 242.8 546.227 256.165 569.174 271.212L602.076 221.038ZM505.296 174.822C481.705 166.202 457.932 160.239 434.002 157.018L425.998 216.482C445.402 219.094 464.961 223.964 484.704 231.178L505.296 174.822ZM434.002 157.018C410.797 153.894 385.689 152.375 358.75 152.375V212.375C383.478 212.375 405.87 213.772 425.998 216.482L434.002 157.018ZM358.75 152.375C354.813 152.375 350.359 152.689 345.765 153.149L351.735 212.851C355.475 212.477 357.687 212.375 358.75 212.375V152.375ZM345.437 153.183C339.365 153.858 333.386 155.237 327.591 157.41L348.659 213.59C349.531 213.263 350.635 212.975 352.063 212.817L345.437 153.183ZM327.591 157.41C319.148 160.576 312.123 165.78 306.597 172.226L352.153 211.274C351.939 211.523 351.523 211.949 350.875 212.412C350.217 212.882 349.461 213.289 348.659 213.59L327.591 157.41ZM308.162 170.537C299.04 179.659 295.625 191.156 295.625 201.75H355.625C355.625 202.663 355.486 204.436 354.652 206.659C353.784 208.973 352.388 211.163 350.588 212.963L308.162 170.537Z" fill="#C11D1D"/>
<path d="M951.361 1007.08V215.842C951.361 211.255 954.489 207.293 960.744 203.958C966.582 200.622 974.296 197.911 983.887 195.826C993.478 193.324 1004.11 191.448 1015.79 190.197C1027.05 188.529 1038.1 187.278 1048.94 186.444C1059.78 185.193 1069.79 184.15 1078.96 183.316C1088.13 182.482 1094.81 181.44 1098.98 180.189C1104.4 179.772 1107.11 176.645 1107.11 170.807C1107.11 167.888 1105.23 166.011 1101.48 165.177C1097.31 163.926 1093.76 163.301 1090.85 163.301H905.075C893.399 163.301 878.596 162.675 860.666 161.424C842.735 160.173 823.553 158.922 803.121 157.671C782.688 156.42 761.838 155.169 740.572 153.918C719.305 152.667 699.498 152.042 681.15 152.042H518.523C518.106 151.625 515.604 151.417 511.018 151.417H497.882C491.627 151.417 487.666 154.544 485.998 160.799C483.913 166.637 482.871 172.058 482.871 177.062C481.203 198.745 479.326 221.054 477.241 243.989C475.156 266.506 474.114 288.607 474.114 310.291C474.114 314.877 475.573 318.839 478.492 322.175C480.994 325.094 484.747 326.553 489.751 326.553C493.087 326.553 496.423 325.928 499.759 324.677C503.095 323.009 506.222 318.839 509.141 312.167C512.477 305.078 516.23 297.155 520.4 288.398C524.57 279.642 529.157 271.093 534.161 262.753C539.165 254.414 544.377 246.908 549.798 240.236C555.219 233.147 560.431 227.935 565.435 224.599C579.196 215.008 593.374 207.502 607.968 202.081C622.563 196.66 637.783 192.699 653.629 190.197C669.058 187.695 684.903 186.235 701.166 185.818C717.429 184.984 734.108 184.567 751.205 184.567H794.364C804.789 184.567 813.545 186.235 820.634 189.571C827.306 192.49 830.642 200.205 830.642 212.714V564.239C830.642 568.826 828.766 572.162 825.013 574.247C821.26 576.332 818.341 577.791 816.256 578.625C807.499 577.374 798.117 576.54 788.109 576.123C778.101 575.706 768.302 575.498 758.711 575.498C743.699 575.498 728.688 575.289 713.676 574.872C698.247 574.455 683.861 573.413 670.517 571.745C657.173 569.66 645.289 566.741 634.864 562.988C624.022 559.235 615.891 554.022 610.47 547.351C608.802 544.849 607.134 540.887 605.466 535.466C603.381 530.045 601.505 524.208 599.837 517.953C598.169 511.698 596.709 505.86 595.458 500.439C593.791 495.018 592.331 491.057 591.08 488.555C588.995 482.3 587.744 475.628 587.327 468.539C586.91 461.033 586.285 454.153 585.451 447.898C584.617 441.643 582.74 436.431 579.821 432.261C576.902 428.091 571.69 426.006 564.184 426.006C555.01 426.006 549.589 429.55 547.921 436.639C545.836 443.728 544.794 451.025 544.794 458.531V698.719C544.794 700.804 544.794 703.097 544.794 705.599C544.794 707.684 544.377 709.978 543.543 712.479C542.709 719.151 542.292 725.198 542.292 730.619C541.875 735.623 541.667 738.958 541.667 740.626C541.667 745.213 542.917 749.383 545.419 753.136C547.504 756.889 550.84 759.391 555.427 760.642C560.848 760.642 565.227 756.472 568.562 748.132C572.732 737.291 575.443 725.823 576.694 713.73C577.945 701.221 580.03 689.336 582.949 678.078C585.868 666.402 590.455 655.769 596.709 646.178C602.547 636.17 612.347 628.039 626.107 621.784C631.111 619.282 637.366 617.197 644.872 615.529C652.378 613.861 660.301 612.61 668.641 611.776C676.563 610.525 684.486 609.691 692.409 609.274C700.332 608.44 707.004 608.023 712.425 608.023C714.51 608.023 720.765 607.814 731.189 607.397C741.197 606.98 751.831 606.772 763.089 606.772C775.182 606.772 786.232 607.189 796.24 608.023C806.248 608.44 812.294 609.482 814.379 611.15C818.132 614.486 820.634 617.405 821.885 619.907C823.136 622.409 823.762 626.996 823.762 633.668V1005.21C823.345 1011.05 819.592 1015.42 812.503 1018.34C804.997 1020.85 796.032 1022.72 785.607 1023.97C774.765 1025.22 763.298 1026.06 751.205 1026.47C739.112 1026.89 727.854 1027.73 717.429 1028.98C707.004 1029.81 698.456 1031.69 691.784 1034.61C684.695 1037.52 681.15 1042.11 681.15 1048.37C681.15 1051.7 682.401 1054.2 684.903 1055.87C686.988 1057.54 689.699 1058.58 693.035 1059C696.371 1059.83 699.915 1060.25 703.668 1060.25C707.004 1060.67 709.923 1060.88 712.425 1060.88C734.525 1060.88 754.333 1060.67 771.846 1060.25C789.36 1059.83 806.04 1059.42 821.885 1059C837.731 1058.17 853.16 1057.54 868.171 1057.12C883.183 1056.29 899.029 1055.87 915.708 1055.87C925.299 1055.87 934.89 1056.29 944.481 1057.12C954.072 1057.54 964.08 1058.17 974.504 1059C994.103 1060.25 1013.91 1060.88 1033.93 1060.88H1065.2C1067.29 1060.88 1069.58 1060.46 1072.08 1059.63C1074.58 1059.21 1075.83 1057.12 1075.83 1053.37C1075.83 1049.2 1074.58 1046.28 1072.08 1044.61C1069.58 1042.95 1064.78 1041.28 1057.69 1039.61C1046.02 1037.11 1033.93 1035.44 1021.42 1034.61C1008.91 1033.35 997.439 1032.1 987.014 1030.85C976.589 1029.19 968.041 1026.68 961.369 1023.35C954.697 1020.01 951.361 1014.59 951.361 1007.08Z" fill="#C11D1D"/>
<path d="M960.744 203.958L975.628 230.005L975.248 230.222L974.861 230.428L960.744 203.958ZM983.887 195.826L991.459 224.855L990.862 225.01L990.26 225.141L983.887 195.826ZM1015.79 190.197L1020.18 219.873L1019.58 219.962L1018.98 220.026L1015.79 190.197ZM1048.94 186.444L1052.38 216.246L1051.81 216.312L1051.24 216.355L1048.94 186.444ZM1098.98 180.189L1090.36 151.454L1093.45 150.525L1096.68 150.277L1098.98 180.189ZM1101.48 165.177L1094.97 194.463L1093.9 194.226L1092.86 193.912L1101.48 165.177ZM518.523 152.042V182.042H506.097L497.31 173.255L518.523 152.042ZM485.998 160.799L514.985 168.529L514.666 169.724L514.25 170.889L485.998 160.799ZM482.871 177.062H512.871V178.214L512.782 179.362L482.871 177.062ZM477.241 243.989L507.118 246.705L507.116 246.73L507.113 246.755L477.241 243.989ZM478.492 322.175L501.069 302.42L501.17 302.535L501.27 302.651L478.492 322.175ZM499.759 324.677L513.175 351.51L511.767 352.214L510.292 352.767L499.759 324.677ZM509.141 312.167L481.656 300.142L481.821 299.765L481.997 299.393L509.141 312.167ZM549.798 240.236L573.629 258.459L573.36 258.811L573.081 259.154L549.798 240.236ZM565.435 224.599L582.589 249.211L582.334 249.388L582.076 249.56L565.435 224.599ZM653.629 190.197L658.431 219.81L658.369 219.82L658.308 219.83L653.629 190.197ZM701.166 185.818L702.702 215.779L702.319 215.799L701.935 215.809L701.166 185.818ZM820.634 189.571L808.61 217.056L808.233 216.891L807.86 216.716L820.634 189.571ZM816.256 578.625L827.398 606.479L819.952 609.458L812.013 608.323L816.256 578.625ZM713.676 574.872L714.486 544.883L714.498 544.883L714.509 544.884L713.676 574.872ZM670.517 571.745L666.796 601.513L666.34 601.456L665.886 601.385L670.517 571.745ZM634.864 562.988L644.678 534.638L644.852 534.699L645.026 534.761L634.864 562.988ZM610.47 547.351L587.187 566.268L586.294 565.17L585.509 563.992L610.47 547.351ZM605.466 535.466L633.467 524.697L633.837 525.659L634.14 526.644L605.466 535.466ZM595.458 500.439L624.132 491.616L624.448 492.645L624.69 493.693L595.458 500.439ZM591.08 488.555L564.247 501.971L563.294 500.064L562.62 498.042L591.08 488.555ZM587.327 468.539L557.379 470.301L557.376 470.252L557.373 470.203L587.327 468.539ZM547.921 436.639L577.124 443.51L576.935 444.313L576.702 445.104L547.921 436.639ZM543.543 712.479L513.775 708.758L514.143 705.811L515.082 702.993L543.543 712.479ZM542.292 730.619H572.292V731.867L572.188 733.11L542.292 730.619ZM545.419 753.136L570.381 736.495L571.054 737.505L571.644 738.567L545.419 753.136ZM555.427 760.642V790.642H551.41L547.534 789.585L555.427 760.642ZM568.562 748.132L596.563 758.902L596.491 759.088L596.417 759.274L568.562 748.132ZM576.694 713.73L606.545 716.716L606.54 716.767L606.535 716.817L576.694 713.73ZM582.949 678.078L612.053 685.354L612.021 685.48L611.989 685.607L582.949 678.078ZM596.709 646.178L622.623 661.294L622.246 661.94L621.838 662.566L596.709 646.178ZM626.107 621.784L639.524 648.617L639.027 648.865L638.522 649.095L626.107 621.784ZM668.641 611.776L673.319 641.409L672.476 641.542L671.626 641.627L668.641 611.776ZM692.409 609.274L695.55 639.109L694.769 639.191L693.986 639.232L692.409 609.274ZM731.189 607.397L732.438 637.371L732.413 637.372L732.388 637.373L731.189 607.397ZM796.24 608.023L794.991 637.997L794.369 637.971L793.749 637.919L796.24 608.023ZM814.379 611.15L833.12 587.724L833.728 588.211L834.31 588.728L814.379 611.15ZM823.762 1005.21H853.762V1006.28L853.685 1007.35L823.762 1005.21ZM812.503 1018.34L823.925 1046.08L822.97 1046.48L821.99 1046.8L812.503 1018.34ZM785.607 1023.97L789.181 1053.76L789.113 1053.77L789.046 1053.77L785.607 1023.97ZM717.429 1028.98L721.003 1058.76L720.413 1058.83L719.821 1058.88L717.429 1028.98ZM691.784 1034.61L703.808 1062.09L703.509 1062.22L703.206 1062.35L691.784 1034.61ZM684.903 1055.87L701.544 1030.91L702.628 1031.63L703.644 1032.45L684.903 1055.87ZM693.035 1059L696.756 1029.23L698.553 1029.46L700.311 1029.9L693.035 1059ZM703.668 1060.25V1030.25H705.536L707.389 1030.48L703.668 1060.25ZM821.885 1059L823.462 1088.96L823.068 1088.98L822.674 1088.99L821.885 1059ZM868.171 1057.12L869.835 1087.08L869.42 1087.1L869.004 1087.11L868.171 1057.12ZM944.481 1057.12L943.178 1087.1L942.529 1087.07L941.882 1087.01L944.481 1057.12ZM974.504 1059L972.593 1088.94L972.353 1088.92L972.112 1088.9L974.504 1059ZM1072.08 1059.63L1062.59 1031.17L1064.83 1030.42L1067.15 1030.03L1072.08 1059.63ZM1057.69 1039.61L1063.98 1010.28L1064.27 1010.34L1064.57 1010.41L1057.69 1039.61ZM1021.42 1034.61L1019.42 1064.54L1018.92 1064.51L1018.43 1064.46L1021.42 1034.61ZM987.014 1030.85L983.44 1060.64L982.856 1060.57L982.274 1060.48L987.014 1030.85ZM921.361 1007.08V215.842H981.361V1007.08H921.361ZM921.361 215.842C921.361 194.862 936.404 182.939 946.626 177.487L974.861 230.428C974.012 230.881 975.436 230.322 977.253 228.02C979.424 225.27 981.361 220.979 981.361 215.842H921.361ZM945.859 177.91C955.266 172.535 966.178 168.975 977.514 166.511L990.26 225.141C982.414 226.847 977.897 228.708 975.628 230.005L945.859 177.91ZM976.314 166.798C987.576 163.86 999.699 161.749 1012.59 160.368L1018.98 220.026C1008.52 221.147 999.379 222.789 991.459 224.855L976.314 166.798ZM1011.39 160.521C1023.31 158.754 1035.06 157.423 1046.64 156.532L1051.24 216.355C1041.13 217.133 1030.78 218.303 1020.18 219.873L1011.39 160.521ZM1045.5 156.642C1056.54 155.368 1066.79 154.299 1076.24 153.44L1081.68 213.193C1072.78 214.002 1063.02 215.018 1052.38 216.246L1045.5 156.642ZM1076.24 153.44C1085.12 152.633 1089.25 151.786 1090.36 151.454L1107.6 208.924C1100.36 211.094 1091.15 212.332 1081.68 213.193L1076.24 153.44ZM1096.68 150.277C1094.07 150.478 1087.69 151.781 1082.4 157.883C1077.41 163.645 1077.11 169.445 1077.11 170.807H1137.11C1137.11 178.006 1135.45 188.289 1127.75 197.179C1119.75 206.407 1109.3 209.483 1101.28 210.101L1096.68 150.277ZM1077.11 170.807C1077.11 176.43 1079.21 183.146 1084.49 188.423C1089.01 192.945 1093.64 194.168 1094.97 194.463L1107.99 135.892C1113.07 137.021 1120.52 139.598 1126.91 145.997C1134.07 153.15 1137.11 162.264 1137.11 170.807H1077.11ZM1092.86 193.912C1091.67 193.555 1090.89 193.386 1090.48 193.313C1090.05 193.237 1090.21 193.301 1090.85 193.301V133.301C1097.74 133.301 1104.36 134.722 1110.1 136.442L1092.86 193.912ZM1090.85 193.301H905.075V133.301H1090.85V193.301ZM905.075 193.301C892.438 193.301 876.876 192.628 858.578 191.352L862.753 131.497C880.316 132.722 894.361 133.301 905.075 133.301V193.301ZM858.578 191.352C840.742 190.107 821.646 188.862 801.287 187.615L804.954 127.727C825.46 128.983 844.727 130.239 862.753 131.497L858.578 191.352ZM801.287 187.615C780.88 186.366 760.054 185.116 738.81 183.867L742.333 123.97C763.623 125.223 784.496 126.475 804.954 127.727L801.287 187.615ZM738.81 183.867C718.039 182.645 698.826 182.042 681.15 182.042V122.042C700.17 122.042 720.571 122.69 742.333 123.97L738.81 183.867ZM681.15 182.042H518.523V122.042H681.15V182.042ZM497.31 173.255C499.631 175.576 501.89 177.064 503.429 177.952C505.019 178.869 506.414 179.474 507.396 179.856C509.294 180.594 510.823 180.95 511.534 181.102C512.347 181.277 512.96 181.365 513.261 181.404C513.588 181.447 513.795 181.465 513.843 181.469C513.92 181.476 513.733 181.459 513.185 181.443C512.663 181.427 511.95 181.417 511.018 181.417V121.417C513.584 121.417 516.332 121.469 518.826 121.677C519.993 121.774 521.932 121.968 524.106 122.434C525.181 122.665 527.01 123.106 529.143 123.935C530.775 124.57 535.365 126.457 539.737 130.829L497.31 173.255ZM511.018 181.417H497.882V121.417H511.018V181.417ZM497.882 181.417C499.847 181.417 504.329 180.846 508.809 177.309C513.187 173.853 514.625 169.879 514.985 168.529L457.011 153.069C459.039 145.464 463.292 136.799 471.631 130.216C480.072 123.551 489.663 121.417 497.882 121.417V181.417ZM514.25 170.889C513.056 174.232 512.871 176.206 512.871 177.062H452.871C452.871 167.909 454.77 159.041 457.746 150.709L514.25 170.889ZM512.782 179.362C511.103 201.192 509.215 223.64 507.118 246.705L447.364 241.273C449.438 218.468 451.302 196.298 452.959 174.761L512.782 179.362ZM507.113 246.755C505.11 268.392 504.114 289.569 504.114 310.291H444.114C444.114 287.645 445.203 264.621 447.369 241.223L507.113 246.755ZM504.114 310.291C504.114 309.352 503.954 307.947 503.359 306.331C502.758 304.699 501.904 303.373 501.069 302.42L455.915 341.93C448.032 332.92 444.114 321.867 444.114 310.291H504.114ZM501.27 302.651C499.154 300.182 496.557 298.471 494.057 297.498C491.738 296.597 490.098 296.553 489.751 296.553V356.553C478.811 356.553 465.527 353.146 455.714 341.699L501.27 302.651ZM489.751 296.553C489.532 296.553 489.349 296.575 489.226 296.598C489.106 296.62 489.102 296.633 489.225 296.587L510.292 352.767C503.819 355.194 496.923 356.553 489.751 356.553V296.553ZM486.342 297.844C484.383 298.823 482.991 299.901 482.113 300.694C481.243 301.479 480.763 302.089 480.606 302.298C480.356 302.632 480.788 302.127 481.656 300.142L536.626 324.192C533.19 332.045 526.493 344.851 513.175 351.51L486.342 297.844ZM481.997 299.393C485.356 292.254 489.129 284.289 493.314 275.5L547.486 301.296C543.331 310.021 539.598 317.902 536.286 324.941L481.997 299.393ZM493.314 275.5C497.898 265.874 502.939 256.479 508.436 247.319L559.885 278.188C555.374 285.707 551.242 293.409 547.486 301.296L493.314 275.5ZM508.436 247.319C514.077 237.917 520.091 229.224 526.514 221.318L573.081 259.154C568.663 264.592 564.252 270.91 559.885 278.188L508.436 247.319ZM525.967 222.012C532.521 213.442 540.051 205.466 548.794 199.637L582.076 249.56C580.811 250.404 577.917 252.852 573.629 258.459L525.967 222.012ZM548.281 199.987C563.961 189.058 580.377 180.327 597.523 173.958L618.414 230.204C606.37 234.677 594.43 240.957 582.589 249.211L548.281 199.987ZM597.523 173.958C614.041 167.823 631.197 163.367 648.95 160.564L658.308 219.83C644.37 222.03 631.085 225.497 618.414 230.204L597.523 173.958ZM648.827 160.584C665.643 157.857 682.838 156.278 700.397 155.828L701.935 215.809C686.969 216.192 672.472 217.533 658.431 219.81L648.827 160.584ZM699.63 155.858C716.429 154.996 733.621 154.567 751.205 154.567V214.567C734.596 214.567 718.429 214.973 702.702 215.779L699.63 155.858ZM751.205 154.567H794.364V214.567H751.205V154.567ZM794.364 154.567C807.814 154.567 821.231 156.696 833.408 162.427L807.86 216.716C805.859 215.774 801.764 214.567 794.364 214.567V154.567ZM832.659 162.087C856.727 172.616 860.642 197.487 860.642 212.714H800.642C800.642 210.88 800.517 209.722 800.417 209.114C800.315 208.496 800.281 208.706 800.604 209.454C800.946 210.242 801.703 211.666 803.167 213.221C804.682 214.83 806.561 216.16 808.61 217.056L832.659 162.087ZM860.642 212.714V564.239H800.642V212.714H860.642ZM860.642 564.239C860.642 570.663 859.304 577.917 855.382 584.889C851.403 591.963 845.702 597.071 839.582 600.471L810.443 548.022C808.076 549.337 805.19 551.734 803.087 555.473C801.042 559.109 800.642 562.402 800.642 564.239H860.642ZM839.582 600.471C835.526 602.725 831.281 604.926 827.398 606.479L805.114 550.771C805.09 550.78 805.203 550.735 805.476 550.61C805.744 550.488 806.112 550.312 806.592 550.072C807.564 549.586 808.836 548.915 810.443 548.022L839.582 600.471ZM812.013 608.323C804.369 607.231 795.994 606.478 786.86 606.097L789.358 546.149C800.239 546.602 810.629 547.517 820.499 548.927L812.013 608.323ZM786.86 606.097C777.25 605.697 767.867 605.498 758.711 605.498V545.498C768.736 545.498 778.952 545.716 789.358 546.149L786.86 606.097ZM758.711 605.498C743.421 605.498 728.132 605.285 712.843 604.86L714.509 544.884C729.243 545.293 743.977 545.498 758.711 545.498V605.498ZM712.865 604.861C696.602 604.422 681.234 603.318 666.796 601.513L674.238 541.976C686.487 543.507 699.892 544.489 714.486 544.883L712.865 604.861ZM665.886 601.385C651.051 599.067 637.261 595.735 624.703 591.214L645.026 534.761C653.317 537.746 663.296 540.252 675.148 542.104L665.886 601.385ZM625.051 591.337C610.647 586.351 597.125 578.5 587.187 566.268L633.754 528.433C634.657 529.544 637.398 532.118 644.678 534.638L625.051 591.337ZM585.509 563.992C581.383 557.803 578.701 550.489 576.793 544.289L634.14 526.644C634.766 528.68 635.271 530.04 635.617 530.861C636 531.771 635.991 531.548 635.432 530.71L585.509 563.992ZM577.466 546.236C574.958 539.715 572.762 532.852 570.85 525.682L628.824 510.223C630.248 515.563 631.805 520.376 633.467 524.697L577.466 546.236ZM570.85 525.682C569.108 519.152 567.565 512.983 566.227 507.185L624.69 493.693C625.854 498.737 627.229 504.243 628.824 510.223L570.85 525.682ZM566.785 509.262C566.061 506.908 565.453 505.104 564.963 503.773C564.444 502.366 564.197 501.87 564.247 501.971L617.913 475.138C620.321 479.955 622.366 485.876 624.132 491.616L566.785 509.262ZM562.62 498.042C559.64 489.104 557.939 479.818 557.379 470.301L617.275 466.777C617.55 471.438 618.35 475.496 619.541 479.068L562.62 498.042ZM557.373 470.203C556.991 463.326 556.429 457.226 555.714 451.863L615.188 443.933C616.14 451.079 616.829 458.74 617.281 466.875L557.373 470.203ZM555.714 451.863C555.365 449.249 554.825 448.866 555.244 449.465L604.398 415.057C610.655 423.996 613.868 434.037 615.188 443.933L555.714 451.863ZM555.244 449.465C557.473 452.648 560.348 454.53 562.581 455.424C564.493 456.189 565.333 456.006 564.184 456.006V396.006C576.57 396.006 593.542 399.547 604.398 415.057L555.244 449.465ZM564.184 456.006C563.105 456.006 565.848 456.263 569.656 453.773C571.643 452.474 573.445 450.716 574.838 448.628C576.193 446.594 576.834 444.741 577.124 443.51L518.719 429.768C521.079 419.739 526.847 410.076 536.821 403.555C546.049 397.521 556.09 396.006 564.184 396.006V456.006ZM576.702 445.104C575.439 449.4 574.794 453.845 574.794 458.531H514.794C514.794 448.206 516.234 438.056 519.14 428.174L576.702 445.104ZM574.794 458.531V698.719H514.794V458.531H574.794ZM574.794 698.719C574.794 698.723 574.794 698.727 574.794 698.731C574.794 698.735 574.794 698.739 574.794 698.743C574.794 698.747 574.794 698.751 574.794 698.755C574.794 698.76 574.794 698.764 574.794 698.768C574.794 698.772 574.794 698.776 574.794 698.78C574.794 698.784 574.794 698.788 574.794 698.792C574.794 698.796 574.794 698.8 574.794 698.804C574.794 698.808 574.794 698.813 574.794 698.817C574.794 698.821 574.794 698.825 574.794 698.829C574.794 698.833 574.794 698.837 574.794 698.841C574.794 698.845 574.794 698.849 574.794 698.853C574.794 698.857 574.794 698.862 574.794 698.866C574.794 698.87 574.794 698.874 574.794 698.878C574.794 698.882 574.794 698.886 574.794 698.89C574.794 698.894 574.794 698.898 574.794 698.903C574.794 698.907 574.794 698.911 574.794 698.915C574.794 698.919 574.794 698.923 574.794 698.927C574.794 698.931 574.794 698.935 574.794 698.939C574.794 698.944 574.794 698.948 574.794 698.952C574.794 698.956 574.794 698.96 574.794 698.964C574.794 698.968 574.794 698.972 574.794 698.976C574.794 698.98 574.794 698.985 574.794 698.989C574.794 698.993 574.794 698.997 574.794 699.001C574.794 699.005 574.794 699.009 574.794 699.013C574.794 699.017 574.794 699.022 574.794 699.026C574.794 699.03 574.794 699.034 574.794 699.038C574.794 699.042 574.794 699.046 574.794 699.05C574.794 699.054 574.794 699.059 574.794 699.063C574.794 699.067 574.794 699.071 574.794 699.075C574.794 699.079 574.794 699.083 574.794 699.087C574.794 699.091 574.794 699.096 574.794 699.1C574.794 699.104 574.794 699.108 574.794 699.112C574.794 699.116 574.794 699.12 574.794 699.125C574.794 699.129 574.794 699.133 574.794 699.137C574.794 699.141 574.794 699.145 574.794 699.149C574.794 699.153 574.794 699.158 574.794 699.162C574.794 699.166 574.794 699.17 574.794 699.174C574.794 699.178 574.794 699.182 574.794 699.186C574.794 699.191 574.794 699.195 574.794 699.199C574.794 699.203 574.794 699.207 574.794 699.211C574.794 699.215 574.794 699.219 574.794 699.224C574.794 699.228 574.794 699.232 574.794 699.236C574.794 699.24 574.794 699.244 574.794 699.248C574.794 699.253 574.794 699.257 574.794 699.261C574.794 699.265 574.794 699.269 574.794 699.273C574.794 699.277 574.794 699.282 574.794 699.286C574.794 699.29 574.794 699.294 574.794 699.298C574.794 699.302 574.794 699.307 574.794 699.311C574.794 699.315 574.794 699.319 574.794 699.323C574.794 699.327 574.794 699.331 574.794 699.336C574.794 699.34 574.794 699.344 574.794 699.348C574.794 699.352 574.794 699.356 574.794 699.36C574.794 699.365 574.794 699.369 574.794 699.373C574.794 699.377 574.794 699.381 574.794 699.385C574.794 699.39 574.794 699.394 574.794 699.398C574.794 699.402 574.794 699.406 574.794 699.41C574.794 699.415 574.794 699.419 574.794 699.423C574.794 699.427 574.794 699.431 574.794 699.435C574.794 699.44 574.794 699.444 574.794 699.448C574.794 699.452 574.794 699.456 574.794 699.46C574.794 699.464 574.794 699.469 574.794 699.473C574.794 699.477 574.794 699.481 574.794 699.485C574.794 699.49 574.794 699.494 574.794 699.498C574.794 699.502 574.794 699.506 574.794 699.51C574.794 699.515 574.794 699.519 574.794 699.523C574.794 699.527 574.794 699.531 574.794 699.535C574.794 699.54 574.794 699.544 574.794 699.548C574.794 699.552 574.794 699.556 574.794 699.56C574.794 699.565 574.794 699.569 574.794 699.573C574.794 699.577 574.794 699.581 574.794 699.586C574.794 699.59 574.794 699.594 574.794 699.598C574.794 699.602 574.794 699.607 574.794 699.611C574.794 699.615 574.794 699.619 574.794 699.623C574.794 699.627 574.794 699.632 574.794 699.636C574.794 699.64 574.794 699.644 574.794 699.648C574.794 699.653 574.794 699.657 574.794 699.661C574.794 699.665 574.794 699.669 574.794 699.674C574.794 699.678 574.794 699.682 574.794 699.686C574.794 699.69 574.794 699.695 574.794 699.699C574.794 699.703 574.794 699.707 574.794 699.711C574.794 699.716 574.794 699.72 574.794 699.724C574.794 699.728 574.794 699.732 574.794 699.737C574.794 699.741 574.794 699.745 574.794 699.749C574.794 699.753 574.794 699.758 574.794 699.762C574.794 699.766 574.794 699.77 574.794 699.774C574.794 699.779 574.794 699.783 574.794 699.787C574.794 699.791 574.794 699.795 574.794 699.8C574.794 699.804 574.794 699.808 574.794 699.812C574.794 699.816 574.794 699.821 574.794 699.825C574.794 699.829 574.794 699.833 574.794 699.838C574.794 699.842 574.794 699.846 574.794 699.85C574.794 699.854 574.794 699.859 574.794 699.863C574.794 699.867 574.794 699.871 574.794 699.876C574.794 699.88 574.794 699.884 574.794 699.888C574.794 699.892 574.794 699.897 574.794 699.901C574.794 699.905 574.794 699.909 574.794 699.914C574.794 699.918 574.794 699.922 574.794 699.926C574.794 699.93 574.794 699.935 574.794 699.939C574.794 699.943 574.794 699.947 574.794 699.952C574.794 699.956 574.794 699.96 574.794 699.964C574.794 699.969 574.794 699.973 574.794 699.977C574.794 699.981 574.794 699.985 574.794 699.99C574.794 699.994 574.794 699.998 574.794 700.002C574.794 700.007 574.794 700.011 574.794 700.015C574.794 700.019 574.794 700.024 574.794 700.028C574.794 700.032 574.794 700.036 574.794 700.041C574.794 700.045 574.794 700.049 574.794 700.053C574.794 700.057 574.794 700.062 574.794 700.066C574.794 700.07 574.794 700.074 574.794 700.079C574.794 700.083 574.794 700.087 574.794 700.091C574.794 700.096 574.794 700.1 574.794 700.104C574.794 700.108 574.794 700.113 574.794 700.117C574.794 700.121 574.794 700.125 574.794 700.13C574.794 700.134 574.794 700.138 574.794 700.142C574.794 700.147 574.794 700.151 574.794 700.155C574.794 700.159 574.794 700.164 574.794 700.168C574.794 700.172 574.794 700.177 574.794 700.181C574.794 700.185 574.794 700.189 574.794 700.194C574.794 700.198 574.794 700.202 574.794 700.206C574.794 700.211 574.794 700.215 574.794 700.219C574.794 700.223 574.794 700.228 574.794 700.232C574.794 700.236 574.794 700.24 574.794 700.245C574.794 700.249 574.794 700.253 574.794 700.258C574.794 700.262 574.794 700.266 574.794 700.27C574.794 700.275 574.794 700.279 574.794 700.283C574.794 700.287 574.794 700.292 574.794 700.296C574.794 700.3 574.794 700.304 574.794 700.309C574.794 700.313 574.794 700.317 574.794 700.322C574.794 700.326 574.794 700.33 574.794 700.334C574.794 700.339 574.794 700.343 574.794 700.347C574.794 700.352 574.794 700.356 574.794 700.36C574.794 700.364 574.794 700.369 574.794 700.373C574.794 700.377 574.794 700.381 574.794 700.386C574.794 700.39 574.794 700.394 574.794 700.399C574.794 700.403 574.794 700.407 574.794 700.411C574.794 700.416 574.794 700.42 574.794 700.424C574.794 700.429 574.794 700.433 574.794 700.437C574.794 700.441 574.794 700.446 574.794 700.45C574.794 700.454 574.794 700.459 574.794 700.463C574.794 700.467 574.794 700.472 574.794 700.476C574.794 700.48 574.794 700.484 574.794 700.489C574.794 700.493 574.794 700.497 574.794 700.502C574.794 700.506 574.794 700.51 574.794 700.515C574.794 700.519 574.794 700.523 574.794 700.527C574.794 700.532 574.794 700.536 574.794 700.54C574.794 700.545 574.794 700.549 574.794 700.553C574.794 700.558 574.794 700.562 574.794 700.566C574.794 700.57 574.794 700.575 574.794 700.579C574.794 700.583 574.794 700.588 574.794 700.592C574.794 700.596 574.794 700.601 574.794 700.605C574.794 700.609 574.794 700.614 574.794 700.618C574.794 700.622 574.794 700.626 574.794 700.631C574.794 700.635 574.794 700.639 574.794 700.644C574.794 700.648 574.794 700.652 574.794 700.657C574.794 700.661 574.794 700.665 574.794 700.67C574.794 700.674 574.794 700.678 574.794 700.683C574.794 700.687 574.794 700.691 574.794 700.696C574.794 700.7 574.794 700.704 574.794 700.709C574.794 700.713 574.794 700.717 574.794 700.721C574.794 700.726 574.794 700.73 574.794 700.734C574.794 700.739 574.794 700.743 574.794 700.747C574.794 700.752 574.794 700.756 574.794 700.76C574.794 700.765 574.794 700.769 574.794 700.773C574.794 700.778 574.794 700.782 574.794 700.786C574.794 700.791 574.794 700.795 574.794 700.799C574.794 700.804 574.794 700.808 574.794 700.812C574.794 700.817 574.794 700.821 574.794 700.825C574.794 700.83 574.794 700.834 574.794 700.839C574.794 700.843 574.794 700.847 574.794 700.852C574.794 700.856 574.794 700.86 574.794 700.865C574.794 700.869 574.794 700.873 574.794 700.878C574.794 700.882 574.794 700.886 574.794 700.891C574.794 700.895 574.794 700.899 574.794 700.904C574.794 700.908 574.794 700.912 574.794 700.917C574.794 700.921 574.794 700.925 574.794 700.93C574.794 700.934 574.794 700.938 574.794 700.943C574.794 700.947 574.794 700.951 574.794 700.956C574.794 700.96 574.794 700.965 574.794 700.969C574.794 700.973 574.794 700.978 574.794 700.982C574.794 700.986 574.794 700.991 574.794 700.995C574.794 700.999 574.794 701.004 574.794 701.008C574.794 701.012 574.794 701.017 574.794 701.021C574.794 701.026 574.794 701.03 574.794 701.034C574.794 701.039 574.794 701.043 574.794 701.047C574.794 701.052 574.794 701.056 574.794 701.06C574.794 701.065 574.794 701.069 574.794 701.074C574.794 701.078 574.794 701.082 574.794 701.087C574.794 701.091 574.794 701.095 574.794 701.1C574.794 701.104 574.794 701.109 574.794 701.113C574.794 701.117 574.794 701.122 574.794 701.126C574.794 701.13 574.794 701.135 574.794 701.139C574.794 701.144 574.794 701.148 574.794 701.152C574.794 701.157 574.794 701.161 574.794 701.165C574.794 701.17 574.794 701.174 574.794 701.179C574.794 701.183 574.794 701.187 574.794 701.192C574.794 701.196 574.794 701.201 574.794 701.205C574.794 701.209 574.794 701.214 574.794 701.218C574.794 701.222 574.794 701.227 574.794 701.231C574.794 701.236 574.794 701.24 574.794 701.244C574.794 701.249 574.794 701.253 574.794 701.258C574.794 701.262 574.794 701.266 574.794 701.271C574.794 701.275 574.794 701.279 574.794 701.284C574.794 701.288 574.794 701.293 574.794 701.297C574.794 701.301 574.794 701.306 574.794 701.31C574.794 701.315 574.794 701.319 574.794 701.323C574.794 701.328 574.794 701.332 574.794 701.337C574.794 701.341 574.794 701.345 574.794 701.35C574.794 701.354 574.794 701.359 574.794 701.363C574.794 701.367 574.794 701.372 574.794 701.376C574.794 701.381 574.794 701.385 574.794 701.389C574.794 701.394 574.794 701.398 574.794 701.403C574.794 701.407 574.794 701.411 574.794 701.416C574.794 701.42 574.794 701.425 574.794 701.429C574.794 701.434 574.794 701.438 574.794 701.442C574.794 701.447 574.794 701.451 574.794 701.456C574.794 701.46 574.794 701.464 574.794 701.469C574.794 701.473 574.794 701.478 574.794 701.482C574.794 701.487 574.794 701.491 574.794 701.495C574.794 701.5 574.794 701.504 574.794 701.509C574.794 701.513 574.794 701.517 574.794 701.522C574.794 701.526 574.794 701.531 574.794 701.535C574.794 701.54 574.794 701.544 574.794 701.548C574.794 701.553 574.794 701.557 574.794 701.562C574.794 701.566 574.794 701.571 574.794 701.575C574.794 701.579 574.794 701.584 574.794 701.588C574.794 701.593 574.794 701.597 574.794 701.602C574.794 701.606 574.794 701.61 574.794 701.615C574.794 701.619 574.794 701.624 574.794 701.628C574.794 701.633 574.794 701.637 574.794 701.641C574.794 701.646 574.794 701.65 574.794 701.655C574.794 701.659 574.794 701.664 574.794 701.668C574.794 701.673 574.794 701.677 574.794 701.681C574.794 701.686 574.794 701.69 574.794 701.695C574.794 701.699 574.794 701.704 574.794 701.708C574.794 701.713 574.794 701.717 574.794 701.721C574.794 701.726 574.794 701.73 574.794 701.735C574.794 701.739 574.794 701.744 574.794 701.748C574.794 701.753 574.794 701.757 574.794 701.761C574.794 701.766 574.794 701.77 574.794 701.775C574.794 701.779 574.794 701.784 574.794 701.788C574.794 701.793 574.794 701.797 574.794 701.802C574.794 701.806 574.794 701.81 574.794 701.815C574.794 701.819 574.794 701.824 574.794 701.828C574.794 701.833 574.794 701.837 574.794 701.842C574.794 701.846 574.794 701.851 574.794 701.855C574.794 701.859 574.794 701.864 574.794 701.868C574.794 701.873 574.794 701.877 574.794 701.882C574.794 701.886 574.794 701.891 574.794 701.895C574.794 701.9 574.794 701.904 574.794 701.909C574.794 701.913 574.794 701.918 574.794 701.922C574.794 701.927 574.794 701.931 574.794 701.935C574.794 701.94 574.794 701.944 574.794 701.949C574.794 701.953 574.794 701.958 574.794 701.962C574.794 701.967 574.794 701.971 574.794 701.976C574.794 701.98 574.794 701.985 574.794 701.989C574.794 701.994 574.794 701.998 574.794 702.003C574.794 702.007 574.794 702.012 574.794 702.016C574.794 702.021 574.794 702.025 574.794 702.029C574.794 702.034 574.794 702.038 574.794 702.043C574.794 702.047 574.794 702.052 574.794 702.056C574.794 702.061 574.794 702.065 574.794 702.07C574.794 702.074 574.794 702.079 574.794 702.083C574.794 702.088 574.794 702.092 574.794 702.097C574.794 702.101 574.794 702.106 574.794 702.11C574.794 702.115 574.794 702.119 574.794 702.124C574.794 702.128 574.794 702.133 574.794 702.137C574.794 702.142 574.794 702.146 574.794 702.151C574.794 702.155 574.794 702.16 574.794 702.164C574.794 702.169 574.794 702.173 574.794 702.178C574.794 702.182 574.794 702.187 574.794 702.191C574.794 702.196 574.794 702.2 574.794 702.205C574.794 702.209 574.794 702.214 574.794 702.218C574.794 702.223 574.794 702.227 574.794 702.232C574.794 702.236 574.794 702.241 574.794 702.245C574.794 702.25 574.794 702.254 574.794 702.259C574.794 702.263 574.794 702.268 574.794 702.272C574.794 702.277 574.794 702.281 574.794 702.286C574.794 702.29 574.794 702.295 574.794 702.299C574.794 702.304 574.794 702.308 574.794 702.313C574.794 702.317 574.794 702.322 574.794 702.326C574.794 702.331 574.794 702.336 574.794 702.34C574.794 702.345 574.794 702.349 574.794 702.354C574.794 702.358 574.794 702.363 574.794 702.367C574.794 702.372 574.794 702.376 574.794 702.381C574.794 702.385 574.794 702.39 574.794 702.394C574.794 702.399 574.794 702.403 574.794 702.408C574.794 702.412 574.794 702.417 574.794 702.421C574.794 702.426 574.794 702.43 574.794 702.435C574.794 702.44 574.794 702.444 574.794 702.449C574.794 702.453 574.794 702.458 574.794 702.462C574.794 702.467 574.794 702.471 574.794 702.476C574.794 702.48 574.794 702.485 574.794 702.489C574.794 702.494 574.794 702.499 574.794 702.503C574.794 702.508 574.794 702.512 574.794 702.517C574.794 702.521 574.794 702.526 574.794 702.53C574.794 702.535 574.794 702.539 574.794 702.544C574.794 702.548 574.794 702.553 574.794 702.558C574.794 702.562 574.794 702.567 574.794 702.571C574.794 702.576 574.794 702.58 574.794 702.585C574.794 702.589 574.794 702.594 574.794 702.598C574.794 702.603 574.794 702.608 574.794 702.612C574.794 702.617 574.794 702.621 574.794 702.626C574.794 702.63 574.794 702.635 574.794 702.639C574.794 702.644 574.794 702.649 574.794 702.653C574.794 702.658 574.794 702.662 574.794 702.667C574.794 702.671 574.794 702.676 574.794 702.68C574.794 702.685 574.794 702.69 574.794 702.694C574.794 702.699 574.794 702.703 574.794 702.708C574.794 702.712 574.794 702.717 574.794 702.721C574.794 702.726 574.794 702.731 574.794 702.735C574.794 702.74 574.794 702.744 574.794 702.749C574.794 702.753 574.794 702.758 574.794 702.763C574.794 702.767 574.794 702.772 574.794 702.776C574.794 702.781 574.794 702.785 574.794 702.79C574.794 702.795 574.794 702.799 574.794 702.804C574.794 702.808 574.794 702.813 574.794 702.817C574.794 702.822 574.794 702.827 574.794 702.831C574.794 702.836 574.794 702.84 574.794 702.845C574.794 702.849 574.794 702.854 574.794 702.859C574.794 702.863 574.794 702.868 574.794 702.872C574.794 702.877 574.794 702.882 574.794 702.886C574.794 702.891 574.794 702.895 574.794 702.9C574.794 702.904 574.794 702.909 574.794 702.914C574.794 702.918 574.794 702.923 574.794 702.927C574.794 702.932 574.794 702.937 574.794 702.941C574.794 702.946 574.794 702.95 574.794 702.955C574.794 702.96 574.794 702.964 574.794 702.969C574.794 702.973 574.794 702.978 574.794 702.982C574.794 702.987 574.794 702.992 574.794 702.996C574.794 703.001 574.794 703.005 574.794 703.01C574.794 703.015 574.794 703.019 574.794 703.024C574.794 703.028 574.794 703.033 574.794 703.038C574.794 703.042 574.794 703.047 574.794 703.051C574.794 703.056 574.794 703.061 574.794 703.065C574.794 703.07 574.794 703.074 574.794 703.079C574.794 703.084 574.794 703.088 574.794 703.093C574.794 703.097 574.794 703.102 574.794 703.107C574.794 703.111 574.794 703.116 574.794 703.121C574.794 703.125 574.794 703.13 574.794 703.134C574.794 703.139 574.794 703.144 574.794 703.148C574.794 703.153 574.794 703.157 574.794 703.162C574.794 703.167 574.794 703.171 574.794 703.176C574.794 703.181 574.794 703.185 574.794 703.19C574.794 703.194 574.794 703.199 574.794 703.204C574.794 703.208 574.794 703.213 574.794 703.217C574.794 703.222 574.794 703.227 574.794 703.231C574.794 703.236 574.794 703.241 574.794 703.245C574.794 703.25 574.794 703.254 574.794 703.259C574.794 703.264 574.794 703.268 574.794 703.273C574.794 703.278 574.794 703.282 574.794 703.287C574.794 703.291 574.794 703.296 574.794 703.301C574.794 703.305 574.794 703.31 574.794 703.315C574.794 703.319 574.794 703.324 574.794 703.328C574.794 703.333 574.794 703.338 574.794 703.342C574.794 703.347 574.794 703.352 574.794 703.356C574.794 703.361 574.794 703.366 574.794 703.37C574.794 703.375 574.794 703.38 574.794 703.384C574.794 703.389 574.794 703.393 574.794 703.398C574.794 703.403 574.794 703.407 574.794 703.412C574.794 703.417 574.794 703.421 574.794 703.426C574.794 703.431 574.794 703.435 574.794 703.44C574.794 703.445 574.794 703.449 574.794 703.454C574.794 703.458 574.794 703.463 574.794 703.468C574.794 703.472 574.794 703.477 574.794 703.482C574.794 703.486 574.794 703.491 574.794 703.496C574.794 703.5 574.794 703.505 574.794 703.51C574.794 703.514 574.794 703.519 574.794 703.524C574.794 703.528 574.794 703.533 574.794 703.538C574.794 703.542 574.794 703.547 574.794 703.552C574.794 703.556 574.794 703.561 574.794 703.566C574.794 703.57 574.794 703.575 574.794 703.58C574.794 703.584 574.794 703.589 574.794 703.594C574.794 703.598 574.794 703.603 574.794 703.607C574.794 703.612 574.794 703.617 574.794 703.622C574.794 703.626 574.794 703.631 574.794 703.635C574.794 703.64 574.794 703.645 574.794 703.65C574.794 703.654 574.794 703.659 574.794 703.664C574.794 703.668 574.794 703.673 574.794 703.678C574.794 703.682 574.794 703.687 574.794 703.692C574.794 703.696 574.794 703.701 574.794 703.706C574.794 703.71 574.794 703.715 574.794 703.72C574.794 703.724 574.794 703.729 574.794 703.734C574.794 703.738 574.794 703.743 574.794 703.748C574.794 703.752 574.794 703.757 574.794 703.762C574.794 703.766 574.794 703.771 574.794 703.776C574.794 703.78 574.794 703.785 574.794 703.79C574.794 703.795 574.794 703.799 574.794 703.804C574.794 703.809 574.794 703.813 574.794 703.818C574.794 703.823 574.794 703.827 574.794 703.832C574.794 703.837 574.794 703.841 574.794 703.846C574.794 703.851 574.794 703.856 574.794 703.86C574.794 703.865 574.794 703.87 574.794 703.874C574.794 703.879 574.794 703.884 574.794 703.888C574.794 703.893 574.794 703.898 574.794 703.902C574.794 703.907 574.794 703.912 574.794 703.917C574.794 703.921 574.794 703.926 574.794 703.931C574.794 703.935 574.794 703.94 574.794 703.945C574.794 703.95 574.794 703.954 574.794 703.959C574.794 703.964 574.794 703.968 574.794 703.973C574.794 703.978 574.794 703.982 574.794 703.987C574.794 703.992 574.794 703.997 574.794 704.001C574.794 704.006 574.794 704.011 574.794 704.015C574.794 704.02 574.794 704.025 574.794 704.03C574.794 704.034 574.794 704.039 574.794 704.044C574.794 704.048 574.794 704.053 574.794 704.058C574.794 704.063 574.794 704.067 574.794 704.072C574.794 704.077 574.794 704.081 574.794 704.086C574.794 704.091 574.794 704.096 574.794 704.1C574.794 704.105 574.794 704.11 574.794 704.114C574.794 704.119 574.794 704.124 574.794 704.129C574.794 704.133 574.794 704.138 574.794 704.143C574.794 704.148 574.794 704.152 574.794 704.157C574.794 704.162 574.794 704.166 574.794 704.171C574.794 704.176 574.794 704.181 574.794 704.185C574.794 704.19 574.794 704.195 574.794 704.2C574.794 704.204 574.794 704.209 574.794 704.214C574.794 704.219 574.794 704.223 574.794 704.228C574.794 704.233 574.794 704.237 574.794 704.242C574.794 704.247 574.794 704.252 574.794 704.256C574.794 704.261 574.794 704.266 574.794 704.271C574.794 704.275 574.794 704.28 574.794 704.285C574.794 704.29 574.794 704.294 574.794 704.299C574.794 704.304 574.794 704.309 574.794 704.313C574.794 704.318 574.794 704.323 574.794 704.328C574.794 704.332 574.794 704.337 574.794 704.342C574.794 704.346 574.794 704.351 574.794 704.356C574.794 704.361 574.794 704.366 574.794 704.37C574.794 704.375 574.794 704.38 574.794 704.385C574.794 704.389 574.794 704.394 574.794 704.399C574.794 704.404 574.794 704.408 574.794 704.413C574.794 704.418 574.794 704.423 574.794 704.427C574.794 704.432 574.794 704.437 574.794 704.442C574.794 704.446 574.794 704.451 574.794 704.456C574.794 704.461 574.794 704.465 574.794 704.47C574.794 704.475 574.794 704.48 574.794 704.484C574.794 704.489 574.794 704.494 574.794 704.499C574.794 704.504 574.794 704.508 574.794 704.513C574.794 704.518 574.794 704.523 574.794 704.527C574.794 704.532 574.794 704.537 574.794 704.542C574.794 704.546 574.794 704.551 574.794 704.556C574.794 704.561 574.794 704.566 574.794 704.57C574.794 704.575 574.794 704.58 574.794 704.585C574.794 704.589 574.794 704.594 574.794 704.599C574.794 704.604 574.794 704.609 574.794 704.613C574.794 704.618 574.794 704.623 574.794 704.628C574.794 704.632 574.794 704.637 574.794 704.642C574.794 704.647 574.794 704.652 574.794 704.656C574.794 704.661 574.794 704.666 574.794 704.671C574.794 704.675 574.794 704.68 574.794 704.685C574.794 704.69 574.794 704.695 574.794 704.699C574.794 704.704 574.794 704.709 574.794 704.714C574.794 704.719 574.794 704.723 574.794 704.728C574.794 704.733 574.794 704.738 574.794 704.742C574.794 704.747 574.794 704.752 574.794 704.757C574.794 704.762 574.794 704.766 574.794 704.771C574.794 704.776 574.794 704.781 574.794 704.786C574.794 704.79 574.794 704.795 574.794 704.8C574.794 704.805 574.794 704.81 574.794 704.814C574.794 704.819 574.794 704.824 574.794 704.829C574.794 704.834 574.794 704.838 574.794 704.843C574.794 704.848 574.794 704.853 574.794 704.858C574.794 704.862 574.794 704.867 574.794 704.872C574.794 704.877 574.794 704.882 574.794 704.887C574.794 704.891 574.794 704.896 574.794 704.901C574.794 704.906 574.794 704.911 574.794 704.915C574.794 704.92 574.794 704.925 574.794 704.93C574.794 704.935 574.794 704.939 574.794 704.944C574.794 704.949 574.794 704.954 574.794 704.959C574.794 704.964 574.794 704.968 574.794 704.973C574.794 704.978 574.794 704.983 574.794 704.988C574.794 704.992 574.794 704.997 574.794 705.002C574.794 705.007 574.794 705.012 574.794 705.017C574.794 705.021 574.794 705.026 574.794 705.031C574.794 705.036 574.794 705.041 574.794 705.045C574.794 705.05 574.794 705.055 574.794 705.06C574.794 705.065 574.794 705.07 574.794 705.074C574.794 705.079 574.794 705.084 574.794 705.089C574.794 705.094 574.794 705.099 574.794 705.103C574.794 705.108 574.794 705.113 574.794 705.118C574.794 705.123 574.794 705.128 574.794 705.132C574.794 705.137 574.794 705.142 574.794 705.147C574.794 705.152 574.794 705.157 574.794 705.161C574.794 705.166 574.794 705.171 574.794 705.176C574.794 705.181 574.794 705.186 574.794 705.19C574.794 705.195 574.794 705.2 574.794 705.205C574.794 705.21 574.794 705.215 574.794 705.22C574.794 705.224 574.794 705.229 574.794 705.234C574.794 705.239 574.794 705.244 574.794 705.249C574.794 705.253 574.794 705.258 574.794 705.263C574.794 705.268 574.794 705.273 574.794 705.278C574.794 705.283 574.794 705.287 574.794 705.292C574.794 705.297 574.794 705.302 574.794 705.307C574.794 705.312 574.794 705.317 574.794 705.321C574.794 705.326 574.794 705.331 574.794 705.336C574.794 705.341 574.794 705.346 574.794 705.351C574.794 705.355 574.794 705.36 574.794 705.365C574.794 705.37 574.794 705.375 574.794 705.38C574.794 705.385 574.794 705.389 574.794 705.394C574.794 705.399 574.794 705.404 574.794 705.409C574.794 705.414 574.794 705.419 574.794 705.424C574.794 705.428 574.794 705.433 574.794 705.438C574.794 705.443 574.794 705.448 574.794 705.453C574.794 705.458 574.794 705.463 574.794 705.467C574.794 705.472 574.794 705.477 574.794 705.482C574.794 705.487 574.794 705.492 574.794 705.497C574.794 705.501 574.794 705.506 574.794 705.511C574.794 705.516 574.794 705.521 574.794 705.526C574.794 705.531 574.794 705.536 574.794 705.541C574.794 705.545 574.794 705.55 574.794 705.555C574.794 705.56 574.794 705.565 574.794 705.57C574.794 705.575 574.794 705.58 574.794 705.584C574.794 705.589 574.794 705.594 574.794 705.599H514.794C514.794 705.594 514.794 705.589 514.794 705.584C514.794 705.58 514.794 705.575 514.794 705.57C514.794 705.565 514.794 705.56 514.794 705.555C514.794 705.55 514.794 705.545 514.794 705.541C514.794 705.536 514.794 705.531 514.794 705.526C514.794 705.521 514.794 705.516 514.794 705.511C514.794 705.506 514.794 705.501 514.794 705.497C514.794 705.492 514.794 705.487 514.794 705.482C514.794 705.477 514.794 705.472 514.794 705.467C514.794 705.463 514.794 705.458 514.794 705.453C514.794 705.448 514.794 705.443 514.794 705.438C514.794 705.433 514.794 705.428 514.794 705.424C514.794 705.419 514.794 705.414 514.794 705.409C514.794 705.404 514.794 705.399 514.794 705.394C514.794 705.389 514.794 705.385 514.794 705.38C514.794 705.375 514.794 705.37 514.794 705.365C514.794 705.36 514.794 705.355 514.794 705.351C514.794 705.346 514.794 705.341 514.794 705.336C514.794 705.331 514.794 705.326 514.794 705.321C514.794 705.317 514.794 705.312 514.794 705.307C514.794 705.302 514.794 705.297 514.794 705.292C514.794 705.287 514.794 705.283 514.794 705.278C514.794 705.273 514.794 705.268 514.794 705.263C514.794 705.258 514.794 705.253 514.794 705.249C514.794 705.244 514.794 705.239 514.794 705.234C514.794 705.229 514.794 705.224 514.794 705.22C514.794 705.215 514.794 705.21 514.794 705.205C514.794 705.2 514.794 705.195 514.794 705.19C514.794 705.186 514.794 705.181 514.794 705.176C514.794 705.171 514.794 705.166 514.794 705.161C514.794 705.157 514.794 705.152 514.794 705.147C514.794 705.142 514.794 705.137 514.794 705.132C514.794 705.128 514.794 705.123 514.794 705.118C514.794 705.113 514.794 705.108 514.794 705.103C514.794 705.099 514.794 705.094 514.794 705.089C514.794 705.084 514.794 705.079 514.794 705.074C514.794 705.07 514.794 705.065 514.794 705.06C514.794 705.055 514.794 705.05 514.794 705.045C514.794 705.041 514.794 705.036 514.794 705.031C514.794 705.026 514.794 705.021 514.794 705.017C514.794 705.012 514.794 705.007 514.794 705.002C514.794 704.997 514.794 704.992 514.794 704.988C514.794 704.983 514.794 704.978 514.794 704.973C514.794 704.968 514.794 704.964 514.794 704.959C514.794 704.954 514.794 704.949 514.794 704.944C514.794 704.939 514.794 704.935 514.794 704.93C514.794 704.925 514.794 704.92 514.794 704.915C514.794 704.911 514.794 704.906 514.794 704.901C514.794 704.896 514.794 704.891 514.794 704.887C514.794 704.882 514.794 704.877 514.794 704.872C514.794 704.867 514.794 704.862 514.794 704.858C514.794 704.853 514.794 704.848 514.794 704.843C514.794 704.838 514.794 704.834 514.794 704.829C514.794 704.824 514.794 704.819 514.794 704.814C514.794 704.81 514.794 704.805 514.794 704.8C514.794 704.795 514.794 704.79 514.794 704.786C514.794 704.781 514.794 704.776 514.794 704.771C514.794 704.766 514.794 704.762 514.794 704.757C514.794 704.752 514.794 704.747 514.794 704.742C514.794 704.738 514.794 704.733 514.794 704.728C514.794 704.723 514.794 704.719 514.794 704.714C514.794 704.709 514.794 704.704 514.794 704.699C514.794 704.695 514.794 704.69 514.794 704.685C514.794 704.68 514.794 704.675 514.794 704.671C514.794 704.666 514.794 704.661 514.794 704.656C514.794 704.652 514.794 704.647 514.794 704.642C514.794 704.637 514.794 704.632 514.794 704.628C514.794 704.623 514.794 704.618 514.794 704.613C514.794 704.609 514.794 704.604 514.794 704.599C514.794 704.594 514.794 704.589 514.794 704.585C514.794 704.58 514.794 704.575 514.794 704.57C514.794 704.566 514.794 704.561 514.794 704.556C514.794 704.551 514.794 704.546 514.794 704.542C514.794 704.537 514.794 704.532 514.794 704.527C514.794 704.523 514.794 704.518 514.794 704.513C514.794 704.508 514.794 704.504 514.794 704.499C514.794 704.494 514.794 704.489 514.794 704.484C514.794 704.48 514.794 704.475 514.794 704.47C514.794 704.465 514.794 704.461 514.794 704.456C514.794 704.451 514.794 704.446 514.794 704.442C514.794 704.437 514.794 704.432 514.794 704.427C514.794 704.423 514.794 704.418 514.794 704.413C514.794 704.408 514.794 704.404 514.794 704.399C514.794 704.394 514.794 704.389 514.794 704.385C514.794 704.38 514.794 704.375 514.794 704.37C514.794 704.366 514.794 704.361 514.794 704.356C514.794 704.351 514.794 704.346 514.794 704.342C514.794 704.337 514.794 704.332 514.794 704.328C514.794 704.323 514.794 704.318 514.794 704.313C514.794 704.309 514.794 704.304 514.794 704.299C514.794 704.294 514.794 704.29 514.794 704.285C514.794 704.28 514.794 704.275 514.794 704.271C514.794 704.266 514.794 704.261 514.794 704.256C514.794 704.252 514.794 704.247 514.794 704.242C514.794 704.237 514.794 704.233 514.794 704.228C514.794 704.223 514.794 704.219 514.794 704.214C514.794 704.209 514.794 704.204 514.794 704.2C514.794 704.195 514.794 704.19 514.794 704.185C514.794 704.181 514.794 704.176 514.794 704.171C514.794 704.166 514.794 704.162 514.794 704.157C514.794 704.152 514.794 704.148 514.794 704.143C514.794 704.138 514.794 704.133 514.794 704.129C514.794 704.124 514.794 704.119 514.794 704.114C514.794 704.11 514.794 704.105 514.794 704.1C514.794 704.096 514.794 704.091 514.794 704.086C514.794 704.081 514.794 704.077 514.794 704.072C514.794 704.067 514.794 704.063 514.794 704.058C514.794 704.053 514.794 704.048 514.794 704.044C514.794 704.039 514.794 704.034 514.794 704.03C514.794 704.025 514.794 704.02 514.794 704.015C514.794 704.011 514.794 704.006 514.794 704.001C514.794 703.997 514.794 703.992 514.794 703.987C514.794 703.982 514.794 703.978 514.794 703.973C514.794 703.968 514.794 703.964 514.794 703.959C514.794 703.954 514.794 703.95 514.794 703.945C514.794 703.94 514.794 703.935 514.794 703.931C514.794 703.926 514.794 703.921 514.794 703.917C514.794 703.912 514.794 703.907 514.794 703.902C514.794 703.898 514.794 703.893 514.794 703.888C514.794 703.884 514.794 703.879 514.794 703.874C514.794 703.87 514.794 703.865 514.794 703.86C514.794 703.856 514.794 703.851 514.794 703.846C514.794 703.841 514.794 703.837 514.794 703.832C514.794 703.827 514.794 703.823 514.794 703.818C514.794 703.813 514.794 703.809 514.794 703.804C514.794 703.799 514.794 703.795 514.794 703.79C514.794 703.785 514.794 703.78 514.794 703.776C514.794 703.771 514.794 703.766 514.794 703.762C514.794 703.757 514.794 703.752 514.794 703.748C514.794 703.743 514.794 703.738 514.794 703.734C514.794 703.729 514.794 703.724 514.794 703.72C514.794 703.715 514.794 703.71 514.794 703.706C514.794 703.701 514.794 703.696 514.794 703.692C514.794 703.687 514.794 703.682 514.794 703.678C514.794 703.673 514.794 703.668 514.794 703.664C514.794 703.659 514.794 703.654 514.794 703.65C514.794 703.645 514.794 703.64 514.794 703.635C514.794 703.631 514.794 703.626 514.794 703.622C514.794 703.617 514.794 703.612 514.794 703.607C514.794 703.603 514.794 703.598 514.794 703.594C514.794 703.589 514.794 703.584 514.794 703.58C514.794 703.575 514.794 703.57 514.794 703.566C514.794 703.561 514.794 703.556 514.794 703.552C514.794 703.547 514.794 703.542 514.794 703.538C514.794 703.533 514.794 703.528 514.794 703.524C514.794 703.519 514.794 703.514 514.794 703.51C514.794 703.505 514.794 703.5 514.794 703.496C514.794 703.491 514.794 703.486 514.794 703.482C514.794 703.477 514.794 703.472 514.794 703.468C514.794 703.463 514.794 703.458 514.794 703.454C514.794 703.449 514.794 703.445 514.794 703.44C514.794 703.435 514.794 703.431 514.794 703.426C514.794 703.421 514.794 703.417 514.794 703.412C514.794 703.407 514.794 703.403 514.794 703.398C514.794 703.393 514.794 703.389 514.794 703.384C514.794 703.38 514.794 703.375 514.794 703.37C514.794 703.366 514.794 703.361 514.794 703.356C514.794 703.352 514.794 703.347 514.794 703.342C514.794 703.338 514.794 703.333 514.794 703.328C514.794 703.324 514.794 703.319 514.794 703.315C514.794 703.31 514.794 703.305 514.794 703.301C514.794 703.296 514.794 703.291 514.794 703.287C514.794 703.282 514.794 703.278 514.794 703.273C514.794 703.268 514.794 703.264 514.794 703.259C514.794 703.254 514.794 703.25 514.794 703.245C514.794 703.241 514.794 703.236 514.794 703.231C514.794 703.227 514.794 703.222 514.794 703.217C514.794 703.213 514.794 703.208 514.794 703.204C514.794 703.199 514.794 703.194 514.794 703.19C514.794 703.185 514.794 703.181 514.794 703.176C514.794 703.171 514.794 703.167 514.794 703.162C514.794 703.157 514.794 703.153 514.794 703.148C514.794 703.144 514.794 703.139 514.794 703.134C514.794 703.13 514.794 703.125 514.794 703.121C514.794 703.116 514.794 703.111 514.794 703.107C514.794 703.102 514.794 703.097 514.794 703.093C514.794 703.088 514.794 703.084 514.794 703.079C514.794 703.074 514.794 703.07 514.794 703.065C514.794 703.061 514.794 703.056 514.794 703.051C514.794 703.047 514.794 703.042 514.794 703.038C514.794 703.033 514.794 703.028 514.794 703.024C514.794 703.019 514.794 703.015 514.794 703.01C514.794 703.005 514.794 703.001 514.794 702.996C514.794 702.992 514.794 702.987 514.794 702.982C514.794 702.978 514.794 702.973 514.794 702.969C514.794 702.964 514.794 702.96 514.794 702.955C514.794 702.95 514.794 702.946 514.794 702.941C514.794 702.937 514.794 702.932 514.794 702.927C514.794 702.923 514.794 702.918 514.794 702.914C514.794 702.909 514.794 702.904 514.794 702.9C514.794 702.895 514.794 702.891 514.794 702.886C514.794 702.882 514.794 702.877 514.794 702.872C514.794 702.868 514.794 702.863 514.794 702.859C514.794 702.854 514.794 702.849 514.794 702.845C514.794 702.84 514.794 702.836 514.794 702.831C514.794 702.827 514.794 702.822 514.794 702.817C514.794 702.813 514.794 702.808 514.794 702.804C514.794 702.799 514.794 702.795 514.794 702.79C514.794 702.785 514.794 702.781 514.794 702.776C514.794 702.772 514.794 702.767 514.794 702.763C514.794 702.758 514.794 702.753 514.794 702.749C514.794 702.744 514.794 702.74 514.794 702.735C514.794 702.731 514.794 702.726 514.794 702.721C514.794 702.717 514.794 702.712 514.794 702.708C514.794 702.703 514.794 702.699 514.794 702.694C514.794 702.69 514.794 702.685 514.794 702.68C514.794 702.676 514.794 702.671 514.794 702.667C514.794 702.662 514.794 702.658 514.794 702.653C514.794 702.649 514.794 702.644 514.794 702.639C514.794 702.635 514.794 702.63 514.794 702.626C514.794 702.621 514.794 702.617 514.794 702.612C514.794 702.608 514.794 702.603 514.794 702.598C514.794 702.594 514.794 702.589 514.794 702.585C514.794 702.58 514.794 702.576 514.794 702.571C514.794 702.567 514.794 702.562 514.794 702.558C514.794 702.553 514.794 702.548 514.794 702.544C514.794 702.539 514.794 702.535 514.794 702.53C514.794 702.526 514.794 702.521 514.794 702.517C514.794 702.512 514.794 702.508 514.794 702.503C514.794 702.499 514.794 702.494 514.794 702.489C514.794 702.485 514.794 702.48 514.794 702.476C514.794 702.471 514.794 702.467 514.794 702.462C514.794 702.458 514.794 702.453 514.794 702.449C514.794 702.444 514.794 702.44 514.794 702.435C514.794 702.43 514.794 702.426 514.794 702.421C514.794 702.417 514.794 702.412 514.794 702.408C514.794 702.403 514.794 702.399 514.794 702.394C514.794 702.39 514.794 702.385 514.794 702.381C514.794 702.376 514.794 702.372 514.794 702.367C514.794 702.363 514.794 702.358 514.794 702.354C514.794 702.349 514.794 702.345 514.794 702.34C514.794 702.336 514.794 702.331 514.794 702.326C514.794 702.322 514.794 702.317 514.794 702.313C514.794 702.308 514.794 702.304 514.794 702.299C514.794 702.295 514.794 702.29 514.794 702.286C514.794 702.281 514.794 702.277 514.794 702.272C514.794 702.268 514.794 702.263 514.794 702.259C514.794 702.254 514.794 702.25 514.794 702.245C514.794 702.241 514.794 702.236 514.794 702.232C514.794 702.227 514.794 702.223 514.794 702.218C514.794 702.214 514.794 702.209 514.794 702.205C514.794 702.2 514.794 702.196 514.794 702.191C514.794 702.187 514.794 702.182 514.794 702.178C514.794 702.173 514.794 702.169 514.794 702.164C514.794 702.16 514.794 702.155 514.794 702.151C514.794 702.146 514.794 702.142 514.794 702.137C514.794 702.133 514.794 702.128 514.794 702.124C514.794 702.119 514.794 702.115 514.794 702.11C514.794 702.106 514.794 702.101 514.794 702.097C514.794 702.092 514.794 702.088 514.794 702.083C514.794 702.079 514.794 702.074 514.794 702.07C514.794 702.065 514.794 702.061 514.794 702.056C514.794 702.052 514.794 702.047 514.794 702.043C514.794 702.038 514.794 702.034 514.794 702.029C514.794 702.025 514.794 702.021 514.794 702.016C514.794 702.012 514.794 702.007 514.794 702.003C514.794 701.998 514.794 701.994 514.794 701.989C514.794 701.985 514.794 701.98 514.794 701.976C514.794 701.971 514.794 701.967 514.794 701.962C514.794 701.958 514.794 701.953 514.794 701.949C514.794 701.944 514.794 701.94 514.794 701.935C514.794 701.931 514.794 701.927 514.794 701.922C514.794 701.918 514.794 701.913 514.794 701.909C514.794 701.904 514.794 701.9 514.794 701.895C514.794 701.891 514.794 701.886 514.794 701.882C514.794 701.877 514.794 701.873 514.794 701.868C514.794 701.864 514.794 701.859 514.794 701.855C514.794 701.851 514.794 701.846 514.794 701.842C514.794 701.837 514.794 701.833 514.794 701.828C514.794 701.824 514.794 701.819 514.794 701.815C514.794 701.81 514.794 701.806 514.794 701.802C514.794 701.797 514.794 701.793 514.794 701.788C514.794 701.784 514.794 701.779 514.794 701.775C514.794 701.77 514.794 701.766 514.794 701.761C514.794 701.757 514.794 701.753 514.794 701.748C514.794 701.744 514.794 701.739 514.794 701.735C514.794 701.73 514.794 701.726 514.794 701.721C514.794 701.717 514.794 701.713 514.794 701.708C514.794 701.704 514.794 701.699 514.794 701.695C514.794 701.69 514.794 701.686 514.794 701.681C514.794 701.677 514.794 701.673 514.794 701.668C514.794 701.664 514.794 701.659 514.794 701.655C514.794 701.65 514.794 701.646 514.794 701.641C514.794 701.637 514.794 701.633 514.794 701.628C514.794 701.624 514.794 701.619 514.794 701.615C514.794 701.61 514.794 701.606 514.794 701.602C514.794 701.597 514.794 701.593 514.794 701.588C514.794 701.584 514.794 701.579 514.794 701.575C514.794 701.571 514.794 701.566 514.794 701.562C514.794 701.557 514.794 701.553 514.794 701.548C514.794 701.544 514.794 701.54 514.794 701.535C514.794 701.531 514.794 701.526 514.794 701.522C514.794 701.517 514.794 701.513 514.794 701.509C514.794 701.504 514.794 701.5 514.794 701.495C514.794 701.491 514.794 701.487 514.794 701.482C514.794 701.478 514.794 701.473 514.794 701.469C514.794 701.464 514.794 701.46 514.794 701.456C514.794 701.451 514.794 701.447 514.794 701.442C514.794 701.438 514.794 701.434 514.794 701.429C514.794 701.425 514.794 701.42 514.794 701.416C514.794 701.411 514.794 701.407 514.794 701.403C514.794 701.398 514.794 701.394 514.794 701.389C514.794 701.385 514.794 701.381 514.794 701.376C514.794 701.372 514.794 701.367 514.794 701.363C514.794 701.359 514.794 701.354 514.794 701.35C514.794 701.345 514.794 701.341 514.794 701.337C514.794 701.332 514.794 701.328 514.794 701.323C514.794 701.319 514.794 701.315 514.794 701.31C514.794 701.306 514.794 701.301 514.794 701.297C514.794 701.293 514.794 701.288 514.794 701.284C514.794 701.279 514.794 701.275 514.794 701.271C514.794 701.266 514.794 701.262 514.794 701.258C514.794 701.253 514.794 701.249 514.794 701.244C514.794 701.24 514.794 701.236 514.794 701.231C514.794 701.227 514.794 701.222 514.794 701.218C514.794 701.214 514.794 701.209 514.794 701.205C514.794 701.201 514.794 701.196 514.794 701.192C514.794 701.187 514.794 701.183 514.794 701.179C514.794 701.174 514.794 701.17 514.794 701.165C514.794 701.161 514.794 701.157 514.794 701.152C514.794 701.148 514.794 701.144 514.794 701.139C514.794 701.135 514.794 701.13 514.794 701.126C514.794 701.122 514.794 701.117 514.794 701.113C514.794 701.109 514.794 701.104 514.794 701.1C514.794 701.095 514.794 701.091 514.794 701.087C514.794 701.082 514.794 701.078 514.794 701.074C514.794 701.069 514.794 701.065 514.794 701.06C514.794 701.056 514.794 701.052 514.794 701.047C514.794 701.043 514.794 701.039 514.794 701.034C514.794 701.03 514.794 701.026 514.794 701.021C514.794 701.017 514.794 701.012 514.794 701.008C514.794 701.004 514.794 700.999 514.794 700.995C514.794 700.991 514.794 700.986 514.794 700.982C514.794 700.978 514.794 700.973 514.794 700.969C514.794 700.965 514.794 700.96 514.794 700.956C514.794 700.951 514.794 700.947 514.794 700.943C514.794 700.938 514.794 700.934 514.794 700.93C514.794 700.925 514.794 700.921 514.794 700.917C514.794 700.912 514.794 700.908 514.794 700.904C514.794 700.899 514.794 700.895 514.794 700.891C514.794 700.886 514.794 700.882 514.794 700.878C514.794 700.873 514.794 700.869 514.794 700.865C514.794 700.86 514.794 700.856 514.794 700.852C514.794 700.847 514.794 700.843 514.794 700.839C514.794 700.834 514.794 700.83 514.794 700.825C514.794 700.821 514.794 700.817 514.794 700.812C514.794 700.808 514.794 700.804 514.794 700.799C514.794 700.795 514.794 700.791 514.794 700.786C514.794 700.782 514.794 700.778 514.794 700.773C514.794 700.769 514.794 700.765 514.794 700.76C514.794 700.756 514.794 700.752 514.794 700.747C514.794 700.743 514.794 700.739 514.794 700.734C514.794 700.73 514.794 700.726 514.794 700.721C514.794 700.717 514.794 700.713 514.794 700.709C514.794 700.704 514.794 700.7 514.794 700.696C514.794 700.691 514.794 700.687 514.794 700.683C514.794 700.678 514.794 700.674 514.794 700.67C514.794 700.665 514.794 700.661 514.794 700.657C514.794 700.652 514.794 700.648 514.794 700.644C514.794 700.639 514.794 700.635 514.794 700.631C514.794 700.626 514.794 700.622 514.794 700.618C514.794 700.614 514.794 700.609 514.794 700.605C514.794 700.601 514.794 700.596 514.794 700.592C514.794 700.588 514.794 700.583 514.794 700.579C514.794 700.575 514.794 700.57 514.794 700.566C514.794 700.562 514.794 700.558 514.794 700.553C514.794 700.549 514.794 700.545 514.794 700.54C514.794 700.536 514.794 700.532 514.794 700.527C514.794 700.523 514.794 700.519 514.794 700.515C514.794 700.51 514.794 700.506 514.794 700.502C514.794 700.497 514.794 700.493 514.794 700.489C514.794 700.484 514.794 700.48 514.794 700.476C514.794 700.472 514.794 700.467 514.794 700.463C514.794 700.459 514.794 700.454 514.794 700.45C514.794 700.446 514.794 700.441 514.794 700.437C514.794 700.433 514.794 700.429 514.794 700.424C514.794 700.42 514.794 700.416 514.794 700.411C514.794 700.407 514.794 700.403 514.794 700.399C514.794 700.394 514.794 700.39 514.794 700.386C514.794 700.381 514.794 700.377 514.794 700.373C514.794 700.369 514.794 700.364 514.794 700.36C514.794 700.356 514.794 700.352 514.794 700.347C514.794 700.343 514.794 700.339 514.794 700.334C514.794 700.33 514.794 700.326 514.794 700.322C514.794 700.317 514.794 700.313 514.794 700.309C514.794 700.304 514.794 700.3 514.794 700.296C514.794 700.292 514.794 700.287 514.794 700.283C514.794 700.279 514.794 700.275 514.794 700.27C514.794 700.266 514.794 700.262 514.794 700.258C514.794 700.253 514.794 700.249 514.794 700.245C514.794 700.24 514.794 700.236 514.794 700.232C514.794 700.228 514.794 700.223 514.794 700.219C514.794 700.215 514.794 700.211 514.794 700.206C514.794 700.202 514.794 700.198 514.794 700.194C514.794 700.189 514.794 700.185 514.794 700.181C514.794 700.177 514.794 700.172 514.794 700.168C514.794 700.164 514.794 700.159 514.794 700.155C514.794 700.151 514.794 700.147 514.794 700.142C514.794 700.138 514.794 700.134 514.794 700.13C514.794 700.125 514.794 700.121 514.794 700.117C514.794 700.113 514.794 700.108 514.794 700.104C514.794 700.1 514.794 700.096 514.794 700.091C514.794 700.087 514.794 700.083 514.794 700.079C514.794 700.074 514.794 700.07 514.794 700.066C514.794 700.062 514.794 700.057 514.794 700.053C514.794 700.049 514.794 700.045 514.794 700.041C514.794 700.036 514.794 700.032 514.794 700.028C514.794 700.024 514.794 700.019 514.794 700.015C514.794 700.011 514.794 700.007 514.794 700.002C514.794 699.998 514.794 699.994 514.794 699.99C514.794 699.985 514.794 699.981 514.794 699.977C514.794 699.973 514.794 699.969 514.794 699.964C514.794 699.96 514.794 699.956 514.794 699.952C514.794 699.947 514.794 699.943 514.794 699.939C514.794 699.935 514.794 699.93 514.794 699.926C514.794 699.922 514.794 699.918 514.794 699.914C514.794 699.909 514.794 699.905 514.794 699.901C514.794 699.897 514.794 699.892 514.794 699.888C514.794 699.884 514.794 699.88 514.794 699.876C514.794 699.871 514.794 699.867 514.794 699.863C514.794 699.859 514.794 699.854 514.794 699.85C514.794 699.846 514.794 699.842 514.794 699.838C514.794 699.833 514.794 699.829 514.794 699.825C514.794 699.821 514.794 699.816 514.794 699.812C514.794 699.808 514.794 699.804 514.794 699.8C514.794 699.795 514.794 699.791 514.794 699.787C514.794 699.783 514.794 699.779 514.794 699.774C514.794 699.77 514.794 699.766 514.794 699.762C514.794 699.758 514.794 699.753 514.794 699.749C514.794 699.745 514.794 699.741 514.794 699.737C514.794 699.732 514.794 699.728 514.794 699.724C514.794 699.72 514.794 699.716 514.794 699.711C514.794 699.707 514.794 699.703 514.794 699.699C514.794 699.695 514.794 699.69 514.794 699.686C514.794 699.682 514.794 699.678 514.794 699.674C514.794 699.669 514.794 699.665 514.794 699.661C514.794 699.657 514.794 699.653 514.794 699.648C514.794 699.644 514.794 699.64 514.794 699.636C514.794 699.632 514.794 699.627 514.794 699.623C514.794 699.619 514.794 699.615 514.794 699.611C514.794 699.607 514.794 699.602 514.794 699.598C514.794 699.594 514.794 699.59 514.794 699.586C514.794 699.581 514.794 699.577 514.794 699.573C514.794 699.569 514.794 699.565 514.794 699.56C514.794 699.556 514.794 699.552 514.794 699.548C514.794 699.544 514.794 699.54 514.794 699.535C514.794 699.531 514.794 699.527 514.794 699.523C514.794 699.519 514.794 699.515 514.794 699.51C514.794 699.506 514.794 699.502 514.794 699.498C514.794 699.494 514.794 699.49 514.794 699.485C514.794 699.481 514.794 699.477 514.794 699.473C514.794 699.469 514.794 699.464 514.794 699.46C514.794 699.456 514.794 699.452 514.794 699.448C514.794 699.444 514.794 699.44 514.794 699.435C514.794 699.431 514.794 699.427 514.794 699.423C514.794 699.419 514.794 699.415 514.794 699.41C514.794 699.406 514.794 699.402 514.794 699.398C514.794 699.394 514.794 699.39 514.794 699.385C514.794 699.381 514.794 699.377 514.794 699.373C514.794 699.369 514.794 699.365 514.794 699.36C514.794 699.356 514.794 699.352 514.794 699.348C514.794 699.344 514.794 699.34 514.794 699.336C514.794 699.331 514.794 699.327 514.794 699.323C514.794 699.319 514.794 699.315 514.794 699.311C514.794 699.307 514.794 699.302 514.794 699.298C514.794 699.294 514.794 699.29 514.794 699.286C514.794 699.282 514.794 699.277 514.794 699.273C514.794 699.269 514.794 699.265 514.794 699.261C514.794 699.257 514.794 699.253 514.794 699.248C514.794 699.244 514.794 699.24 514.794 699.236C514.794 699.232 514.794 699.228 514.794 699.224C514.794 699.219 514.794 699.215 514.794 699.211C514.794 699.207 514.794 699.203 514.794 699.199C514.794 699.195 514.794 699.191 514.794 699.186C514.794 699.182 514.794 699.178 514.794 699.174C514.794 699.17 514.794 699.166 514.794 699.162C514.794 699.158 514.794 699.153 514.794 699.149C514.794 699.145 514.794 699.141 514.794 699.137C514.794 699.133 514.794 699.129 514.794 699.125C514.794 699.12 514.794 699.116 514.794 699.112C514.794 699.108 514.794 699.104 514.794 699.1C514.794 699.096 514.794 699.091 514.794 699.087C514.794 699.083 514.794 699.079 514.794 699.075C514.794 699.071 514.794 699.067 514.794 699.063C514.794 699.059 514.794 699.054 514.794 699.05C514.794 699.046 514.794 699.042 514.794 699.038C514.794 699.034 514.794 699.03 514.794 699.026C514.794 699.022 514.794 699.017 514.794 699.013C514.794 699.009 514.794 699.005 514.794 699.001C514.794 698.997 514.794 698.993 514.794 698.989C514.794 698.985 514.794 698.98 514.794 698.976C514.794 698.972 514.794 698.968 514.794 698.964C514.794 698.96 514.794 698.956 514.794 698.952C514.794 698.948 514.794 698.944 514.794 698.939C514.794 698.935 514.794 698.931 514.794 698.927C514.794 698.923 514.794 698.919 514.794 698.915C514.794 698.911 514.794 698.907 514.794 698.903C514.794 698.898 514.794 698.894 514.794 698.89C514.794 698.886 514.794 698.882 514.794 698.878C514.794 698.874 514.794 698.87 514.794 698.866C514.794 698.862 514.794 698.857 514.794 698.853C514.794 698.849 514.794 698.845 514.794 698.841C514.794 698.837 514.794 698.833 514.794 698.829C514.794 698.825 514.794 698.821 514.794 698.817C514.794 698.813 514.794 698.808 514.794 698.804C514.794 698.8 514.794 698.796 514.794 698.792C514.794 698.788 514.794 698.784 514.794 698.78C514.794 698.776 514.794 698.772 514.794 698.768C514.794 698.764 514.794 698.76 514.794 698.755C514.794 698.751 514.794 698.747 514.794 698.743C514.794 698.739 514.794 698.735 514.794 698.731C514.794 698.727 514.794 698.723 514.794 698.719H574.794ZM574.794 705.599C574.794 711.633 573.6 717.178 572.003 721.966L515.082 702.993C515.154 702.777 514.794 703.736 514.794 705.599H574.794ZM573.311 716.201C572.597 721.918 572.292 726.695 572.292 730.619H512.292C512.292 723.701 512.821 716.385 513.775 708.758L573.311 716.201ZM572.188 733.11C571.99 735.497 571.851 737.358 571.764 738.745C571.669 740.276 571.667 740.764 571.667 740.626H511.667C511.667 737.502 511.996 732.92 512.396 728.127L572.188 733.11ZM571.667 740.626C571.667 740.157 571.597 739.432 571.34 738.574C571.081 737.711 570.718 737.001 570.381 736.495L520.458 769.777C514.612 761.008 511.667 751.029 511.667 740.626H571.667ZM571.644 738.567C570.701 736.869 569.292 735.183 567.485 733.827C565.732 732.513 564.17 731.931 563.321 731.699L547.534 789.585C536.072 786.459 525.646 779.317 519.195 767.706L571.644 738.567ZM555.427 730.642C552.82 730.642 550.109 731.167 547.551 732.256C545.05 733.32 543.247 734.685 542.087 735.791C540.018 737.762 539.931 738.935 540.708 736.991L596.417 759.274C591.851 770.689 580.112 790.642 555.427 790.642V730.642ZM540.562 737.363C543.739 729.102 545.862 720.228 546.853 710.643L606.535 716.817C605.024 731.418 601.726 745.479 596.563 758.902L540.562 737.363ZM546.843 710.745C548.235 696.825 550.574 683.413 553.909 670.549L611.989 685.607C609.486 695.26 607.655 705.617 606.545 716.716L546.843 710.745ZM553.844 670.802C557.531 656.055 563.412 642.316 571.581 629.79L621.838 662.566C617.497 669.221 614.204 676.749 612.053 685.354L553.844 670.802ZM570.796 631.062C580.593 614.267 595.991 602.519 613.693 594.473L638.522 649.095C628.702 653.558 624.502 658.073 622.623 661.294L570.796 631.062ZM612.691 594.951C620.533 591.03 629.288 588.26 638.364 586.243L651.38 644.814C645.445 646.133 641.689 647.534 639.524 648.617L612.691 594.951ZM638.364 586.243C647.13 584.295 656.236 582.867 665.656 581.925L671.626 641.627C664.366 642.353 657.626 643.427 651.38 644.814L638.364 586.243ZM663.962 582.143C672.901 580.732 681.859 579.788 690.832 579.315L693.986 639.232C687.113 639.594 680.226 640.318 673.319 641.409L663.962 582.143ZM689.269 579.439C697.799 578.541 705.593 578.023 712.425 578.023V638.023C708.415 638.023 702.865 638.339 695.55 639.109L689.269 579.439ZM712.425 578.023C713.754 578.023 719.254 577.851 729.99 577.421L732.388 637.373C722.275 637.778 715.265 638.023 712.425 638.023V578.023ZM729.941 577.423C740.412 576.987 751.464 576.772 763.089 576.772V636.772C752.197 636.772 741.983 636.974 732.438 637.371L729.941 577.423ZM763.089 576.772C775.852 576.772 787.749 577.211 798.732 578.127L793.749 637.919C784.716 637.167 774.512 636.772 763.089 636.772V576.772ZM797.489 578.049C803.087 578.282 808.543 578.72 813.378 579.554C816.485 580.089 825.508 581.634 833.12 587.724L795.639 634.576C797.481 636.051 799.126 636.96 800.178 637.478C801.263 638.011 802.115 638.32 802.586 638.477C803.076 638.641 803.382 638.714 803.441 638.728C803.509 638.745 803.433 638.724 803.184 638.681C802.661 638.591 801.728 638.461 800.287 638.33C798.869 638.201 797.115 638.085 794.991 637.997L797.489 578.049ZM834.31 588.728C839.014 592.909 844.905 598.866 848.718 606.491L795.052 633.324C795.475 634.168 795.846 634.739 796.047 635.029C796.251 635.324 796.354 635.437 796.293 635.365C796.235 635.297 796.064 635.105 795.746 634.787C795.431 634.472 795.005 634.067 794.448 633.573L834.31 588.728ZM848.718 606.491C853.458 615.971 853.762 627.097 853.762 633.668H793.762C793.762 632.458 793.733 631.483 793.691 630.719C793.648 629.946 793.596 629.483 793.568 629.277C793.537 629.051 793.555 629.284 793.705 629.851C793.784 630.149 793.914 630.595 794.117 631.156C794.319 631.714 794.619 632.456 795.052 633.324L848.718 606.491ZM853.762 633.668V1005.21H793.762V633.668H853.762ZM853.685 1007.35C852.199 1028.16 837.696 1040.41 823.925 1046.08L801.08 990.603C801.627 990.378 799.908 990.953 797.857 993.346C795.483 996.115 794.08 999.681 793.838 1003.07L853.685 1007.35ZM821.99 1046.8C812.057 1050.11 801.007 1052.34 789.181 1053.76L782.033 994.186C791.056 993.104 797.937 991.576 803.016 989.883L821.99 1046.8ZM789.046 1053.77C777.325 1055.13 765.05 1056.02 752.239 1056.46L750.171 996.492C761.545 996.1 772.206 995.32 782.168 994.17L789.046 1053.77ZM752.239 1056.46C740.871 1056.85 730.469 1057.63 721.003 1058.76L713.854 999.19C725.238 997.824 737.354 996.934 750.171 996.492L752.239 1056.46ZM719.821 1058.88C711.396 1059.56 706.41 1060.95 703.808 1062.09L679.759 1007.12C690.501 1002.42 702.611 1000.07 715.036 999.072L719.821 1058.88ZM703.206 1062.35C703.001 1062.43 705.234 1061.57 707.547 1058.58C710.163 1055.19 711.15 1051.32 711.15 1048.37H651.15C651.15 1039.16 653.91 1029.86 660.07 1021.89C665.928 1014.31 673.478 1009.7 680.361 1006.87L703.206 1062.35ZM711.15 1048.37C711.15 1046.27 710.743 1042.97 708.921 1039.33C707.038 1035.56 704.301 1032.75 701.544 1030.91L668.262 1080.83C656.394 1072.92 651.15 1060.44 651.15 1048.37H711.15ZM703.644 1032.45C700.414 1029.86 697.504 1029.33 696.756 1029.23L689.314 1088.77C681.893 1087.84 673.563 1085.22 666.162 1079.3L703.644 1032.45ZM700.311 1029.9C701.061 1030.08 702.146 1030.25 703.668 1030.25V1090.25C697.684 1090.25 691.68 1089.58 685.759 1088.1L700.311 1029.9ZM707.389 1030.48C709.88 1030.79 711.506 1030.88 712.425 1030.88V1090.88C708.34 1090.88 704.128 1090.54 699.947 1090.02L707.389 1030.48ZM712.425 1030.88C734.346 1030.88 753.908 1030.67 771.132 1030.26L772.56 1090.24C754.757 1090.67 734.705 1090.88 712.425 1090.88V1030.88ZM771.132 1030.26C788.623 1029.84 805.278 1029.43 821.096 1029.01L822.674 1088.99C806.801 1089.41 790.096 1089.82 772.56 1090.24L771.132 1030.26ZM820.309 1029.04C836.388 1028.2 852.065 1027.56 867.338 1027.14L869.004 1087.11C854.254 1087.52 839.074 1088.14 823.462 1088.96L820.309 1029.04ZM866.507 1027.17C882.129 1026.3 898.533 1025.87 915.708 1025.87V1085.87C899.525 1085.87 884.237 1086.28 869.835 1087.08L866.507 1027.17ZM915.708 1025.87C926.17 1025.87 936.628 1026.33 947.08 1027.24L941.882 1087.01C933.152 1086.25 924.429 1085.87 915.708 1085.87V1025.87ZM945.784 1027.15C955.769 1027.59 966.141 1028.24 976.897 1029.1L972.112 1088.9C962.018 1088.1 952.375 1087.5 943.178 1087.1L945.784 1027.15ZM976.415 1029.06C995.366 1030.27 1014.54 1030.88 1033.93 1030.88V1090.88C1013.28 1090.88 992.84 1090.23 972.593 1088.94L976.415 1029.06ZM1033.93 1030.88H1065.2V1090.88H1033.93V1030.88ZM1065.2 1030.88C1063.34 1030.88 1062.38 1031.24 1062.59 1031.17L1081.57 1088.09C1076.78 1089.68 1071.23 1090.88 1065.2 1090.88V1030.88ZM1067.15 1030.03C1064.11 1030.54 1060.56 1031.72 1057.08 1034.04C1053.57 1036.38 1050.96 1039.33 1049.17 1042.31C1045.87 1047.81 1045.83 1052.52 1045.83 1053.37H1105.83C1105.83 1057.97 1105.17 1065.6 1100.62 1073.18C1095.25 1082.13 1086.51 1087.64 1077.01 1089.22L1067.15 1030.03ZM1045.83 1053.37C1045.83 1054.14 1045.93 1056.62 1047.32 1059.87C1048.85 1063.45 1051.57 1067 1055.44 1069.58L1088.72 1019.65C1102.57 1028.88 1105.83 1043.41 1105.83 1053.37H1045.83ZM1055.44 1069.58C1056.49 1070.28 1057.21 1070.61 1057.3 1070.65C1057.43 1070.71 1057.28 1070.63 1056.75 1070.45C1055.65 1070.06 1053.75 1069.5 1050.82 1068.81L1064.57 1010.41C1071.57 1012.05 1081.24 1014.66 1088.72 1019.65L1055.44 1069.58ZM1051.41 1068.94C1041.21 1066.76 1030.56 1065.28 1019.42 1064.54L1023.41 1004.67C1037.29 1005.6 1050.82 1007.46 1063.98 1010.28L1051.41 1068.94ZM1018.43 1064.46C1005.76 1063.19 994.094 1061.92 983.44 1060.64L990.589 1001.07C1000.78 1002.29 1012.05 1003.52 1024.4 1004.75L1018.43 1064.46ZM982.274 1060.48C969.979 1058.51 958.232 1055.32 947.953 1050.18L974.786 996.514C977.85 998.047 983.2 999.861 991.754 1001.23L982.274 1060.48ZM947.953 1050.18C940.489 1046.45 933.384 1040.74 928.314 1032.5C923.25 1024.27 921.361 1015.38 921.361 1007.08H981.361C981.361 1006.29 981.141 1003.86 979.413 1001.06C977.678 998.238 975.578 996.91 974.786 996.514L947.953 1050.18Z" fill="black"/>
</svg>
